<svg width="17" height="16" viewBox="0 0 17 16" fill="none" xmlns="http://www.w3.org/2000/svg">
<path d="M9.8359 5.20711L7.04297 8.00004L9.8359 10.793L9.12879 11.5001L5.62876 8.00004L9.12879 4.5L9.8359 5.20711Z" fill="#386DD3"/>
<path d="M8.04297 15C11.909 15 15.043 11.866 15.043 8C15.043 4.13401 11.909 1 8.04297 1C4.17698 1 1.04297 4.13401 1.04297 8C1.04297 11.866 4.17698 15 8.04297 15ZM8.04297 14C4.72926 14 2.04297 11.3137 2.04297 8C2.04297 4.68629 4.72926 2 8.04297 2C11.3567 2 14.043 4.68629 14.043 8C14.043 11.3137 11.3567 14 8.04297 14Z" fill="#386DD3"/>
</svg>
