<svg width="17" height="16" viewBox="0 0 17 16" fill="none" xmlns="http://www.w3.org/2000/svg">
<path d="M6.25004 5.20711L9.04297 8.00004L6.25004 10.793L6.95715 11.5001L10.4572 8.00004L6.95715 4.5L6.25004 5.20711Z" fill="#386DD3"/>
<path d="M8.04297 15C4.17697 15 1.04297 11.866 1.04297 8C1.04297 4.13401 4.17698 1 8.04297 1C11.909 1 15.043 4.13401 15.043 8C15.043 11.866 11.909 15 8.04297 15ZM8.04297 14C11.3567 14 14.043 11.3137 14.043 8C14.043 4.68629 11.3567 2 8.04297 2C4.72926 2 2.04297 4.68629 2.04297 8C2.04297 11.3137 4.72926 14 8.04297 14Z" fill="#386DD3"/>
</svg>
