<svg width="32" height="33" viewBox="0 0 32 33" fill="none" xmlns="http://www.w3.org/2000/svg">
<path d="M28.2 25.1187V7.69873C26.502 6.42487 24.4426 5.72441 22.32 5.69873C20.2289 5.70918 18.1859 6.32763 16.44 7.47873V25.1387C18.192 24.0161 20.2292 23.4194 22.31 23.4194C24.3909 23.4194 26.428 24.0161 28.18 25.1387L28.2 25.1187ZM15.54 25.1187V7.69873C13.842 6.42487 11.7826 5.72441 9.66003 5.69873C7.56904 5.71033 5.52639 6.32869 3.78003 7.47873V25.1387C5.53202 24.0161 7.56921 23.4194 9.65003 23.4194C11.7309 23.4194 13.768 24.0161 15.52 25.1387L15.54 25.1187Z" fill="url(#paint0_linear_34_21020)"/>
<path d="M30 9.23877H29.1V26.1188H18.26V27.0188H13.74V26.1188H2.9V9.23877H2V27.0188H12.84V27.8988H19.22L19.16 27.0188H30V9.23877Z" fill="url(#paint1_linear_34_21020)"/>
<defs>
<linearGradient id="paint0_linear_34_21020" x1="15.99" y1="5.69873" x2="15.99" y2="25.1387" gradientUnits="userSpaceOnUse">
<stop stop-color="#007FF4"/>
<stop offset="1" stop-color="#71BBFF"/>
</linearGradient>
<linearGradient id="paint1_linear_34_21020" x1="16" y1="7.79883" x2="16" y2="33.5488" gradientUnits="userSpaceOnUse">
<stop stop-color="#71BBFF" stop-opacity="0"/>
<stop offset="1" stop-color="#71BBFF"/>
</linearGradient>
</defs>
</svg>
