<svg width="13" height="12" viewBox="0 0 13 12" fill="none" xmlns="http://www.w3.org/2000/svg">
<path d="M8.19247 1.5409H5.78447C5.75647 2.8849 5.75647 4.2569 5.75647 5.6289V6.3849C5.75647 7.7289 5.75647 9.0869 5.78447 10.4309L7.36647 10.5989V11.1309H2.74647V10.5989L4.32847 10.4309C4.35647 9.1009 4.35647 7.7569 4.35647 6.3849V5.6289C4.35647 4.2569 4.35647 2.8849 4.32847 1.5409H1.92047L1.50047 3.5989H0.730469L0.856469 0.868896H9.27047L9.36847 3.5989H8.62647L8.19247 1.5409Z" fill="#386DD3"/>
<path d="M11.8459 5.6509H10.4699C10.4539 6.4189 10.4539 7.2029 10.4539 7.9869V8.4189C10.4539 9.1869 10.4539 9.9629 10.4699 10.7309L11.3739 10.8269V11.1309H8.73387V10.8269L9.63787 10.7309C9.65387 9.9709 9.65387 9.2029 9.65387 8.4189V7.9869C9.65387 7.2029 9.65387 6.4189 9.63787 5.6509H8.26187L8.02187 6.8269H7.58187L7.65387 5.2669H12.4619L12.5179 6.8269H12.0939L11.8459 5.6509Z" fill="#386DD3"/>
</svg>
