<?xml version="1.0" standalone="no"?><!DOCTYPE svg PUBLIC "-//W3C//DTD SVG 1.1//EN" "http://www.w3.org/Graphics/SVG/1.1/DTD/svg11.dtd"><svg t="1743582522966" class="icon" viewBox="0 0 1024 1024" version="1.1" xmlns="http://www.w3.org/2000/svg" p-id="10631" width="200" height="200" xmlns:xlink="http://www.w3.org/1999/xlink"><path d="M512 64C264.618667 64 64 264.618667 64 512S264.618667 960 512 960 960 759.381333 960 512 759.381333 64 512 64z m0 820.010667A372.053333 372.053333 0 0 1 139.989333 512 372.053333 372.053333 0 0 1 512 139.989333 372.053333 372.053333 0 0 1 884.010667 512 372.053333 372.053333 0 0 1 512 884.010667zM423.978667 352H376.021333a8.021333 8.021333 0 0 0-8.021333 8.021333v303.957334c0 4.437333 3.584 8.021333 8.021333 8.021333h47.957334a8.021333 8.021333 0 0 0 8.021333-8.021333V360.064a8.021333 8.021333 0 0 0-8.021333-8.021333z m224 0h-47.957334a8.021333 8.021333 0 0 0-8.021333 8.021333v303.957334c0 4.437333 3.584 8.021333 8.021333 8.021333h47.957334a8.021333 8.021333 0 0 0 8.021333-8.021333V360.064a8.021333 8.021333 0 0 0-8.021333-8.021333z" fill="currentColor" p-id="10632" data-spm-anchor-id="a313x.search_index.0.i1.62e13a81iaavG9" class="selected"></path></svg>