<svg width="17" height="16" viewBox="0 0 17 16" fill="none" xmlns="http://www.w3.org/2000/svg">
<path d="M4.125 1.99902V3.99902H3.125C2.56886 3.99902 2.125 4.44288 2.125 4.99902V9.99902C2.125 10.5552 2.56886 10.999 3.125 10.999H4.125V13.999H12.125V10.999H13.125C13.6811 10.999 14.125 10.5552 14.125 9.99902V4.99902C14.125 4.44288 13.6811 3.99902 13.125 3.99902H12.125V1.99902H4.125ZM11.125 3.99902H5.125V2.99902H11.125V3.99902ZM3.125 4.99902H13.125V9.99902H12.125V7.99902H4.125V9.99902H3.125V4.99902ZM5.125 12.999V8.99902H11.125V12.999H5.125Z" fill="#386DD3"/>
</svg>
