<svg width="19" height="19" viewBox="0 0 19 19" fill="none" xmlns="http://www.w3.org/2000/svg">
<g id="server">
<g id="Union">
<path d="M8.49973 6.40625H5.12473V5.28125H8.49973V6.40625Z" fill="currentColor"/>
<path d="M2.3125 3.31265C2.31242 3.00193 2.56428 2.75 2.875 2.75H16.375C16.6856 2.75 16.9374 3.00175 16.9375 3.31235L16.9386 8.37487C16.9387 8.68559 16.6868 8.93752 16.3761 8.93752H2.87607C2.56547 8.93752 2.31365 8.68577 2.31357 8.37517L2.3125 3.31265ZM3.43842 7.81252H15.8134L15.8127 3.875H3.43765L3.43842 7.81252Z" fill="currentColor"/>
<path d="M5.12485 13.7188H8.49985V12.5938H5.12485V13.7188Z" fill="currentColor"/>
<path d="M2.31372 10.625C2.31372 10.3144 2.56556 10.0625 2.87622 10.0625H16.3762C16.6869 10.0625 16.9387 10.3144 16.9387 10.625V15.6875C16.9387 15.9982 16.6869 16.25 16.3762 16.25H2.87622C2.56556 16.25 2.31372 15.9982 2.31372 15.6875V10.625ZM3.43872 15.125H15.8137V11.1875H3.43872V15.125Z" fill="currentColor"/>
</g>
</g>
</svg>
