<svg  viewBox="0 0 45 45" fill="none" xmlns="http://www.w3.org/2000/svg">
<path d="M1 11.25H14.875C15.4273 11.25 15.875 10.8023 15.875 10.25V7.5C15.875 6.94772 15.4273 6.5 14.875 6.5H7.125C6.57272 6.5 6.125 6.94772 6.125 7.5V14.5C6.125 15.0523 6.57272 15.5 7.125 15.5H9.875C10.4273 15.5 10.875 15.0523 10.875 14.5V1" stroke="currentColor"/>
<path d="M1 23.125V6.5V6.1875C1 5.14177 1 4.61891 1.09719 4.18609C1.43606 2.67704 2.61454 1.49856 4.12359 1.15969C4.55641 1.0625 5.07927 1.0625 6.125 1.0625V1.0625H24.3125" stroke="currentColor"/>
<path d="M26.375 1.0625H28.375" stroke="currentColor"/>
<path d="M42.375 1.0625H44.375" stroke="#7dc1ff"/>
<path d="M29.375 1.0625H41.375" stroke="#7dc1ff"/>
<path d="M1 25V27" stroke="currentColor"/>
<path d="M1 41V43" stroke="#7dc1ff"/>
<path d="M1 28V40" stroke="#7dc1ff"/>
</svg>
