<svg width="14" height="15" viewBox="0 0 14 15" fill="none" xmlns="http://www.w3.org/2000/svg">
<path d="M11.0833 13.632H2.91667C2.27233 13.632 1.75 13.1097 1.75 12.4653V4.29867C1.75 3.65433 2.27233 3.132 2.91667 3.132H4.08333V1.96533H5.25V3.132H8.75V1.96533H9.91667V3.132H11.0833C11.7277 3.132 12.25 3.65433 12.25 4.29867V12.4653C12.25 13.1097 11.7277 13.632 11.0833 13.632ZM2.91667 6.632V12.4653H11.0833V6.632H2.91667ZM2.91667 4.29867V5.46533H11.0833V4.29867H2.91667ZM5.71667 11.882H4.66667V10.832L7.11667 8.38783L8.16667 9.43783L5.71667 11.882ZM8.53125 9.0715L7.48125 8.0215L8.28333 7.22292L9.33333 8.27291L8.53417 9.07208L8.53125 9.0715Z" fill="currentColor"/>
</svg>
