<svg width="17" height="16" viewBox="0 0 17 16" fill="none" xmlns="http://www.w3.org/2000/svg">
<path d="M6.04297 7V9H7.04297V7H9.04297V6H7.04297V4H6.04297V6H4.04297V7H6.04297Z" fill="#386DD3"/>
<path d="M9.55396 10.2181C8.73542 10.8812 7.6927 11.2784 6.55721 11.2784C3.92599 11.2784 1.79297 9.14541 1.79297 6.51421C1.79297 3.88301 3.92599 1.75 6.55721 1.75C9.18842 1.75 11.3214 3.88301 11.3214 6.51421C11.3214 7.64972 10.9242 8.69245 10.2611 9.511L13.7924 13.0423L13.0853 13.7494L9.55396 10.2181ZM10.3214 6.51421C10.3214 4.4353 8.63614 2.75 6.55721 2.75C4.47827 2.75 2.79297 4.4353 2.79297 6.51421C2.79297 8.59312 4.47827 10.2784 6.55721 10.2784C8.63614 10.2784 10.3214 8.59312 10.3214 6.51421Z" fill="#386DD3"/>
</svg>
