<?xml version="1.0" encoding="utf-8"?>
<!-- Generator: Adobe Illustrator 28.1.0, SVG Export Plug-In . SVG Version: 6.00 Build 0)  -->
<svg version="1.1" id="图层_1" xmlns="http://www.w3.org/2000/svg" xmlns:xlink="http://www.w3.org/1999/xlink" x="0px" y="0px"
	 viewBox="0 0 704.99 506.32" style="enable-background:new 0 0 704.99 506.32;" xml:space="preserve">
<style type="text/css">
	.st0{fill:none;}
	.st1{fill:#EBC773;}
</style>
<rect x="-68.76" y="-44.49" class="st0" width="842.4" height="595.44"/>
<g>
	<rect x="2.11" y="472.53" class="st1" width="1" height="17.55"/>
</g>
<g>
	<rect y="472.53" class="st1" width="1" height="17.55"/>
</g>
<g>
	<rect x="13.94" y="472.53" class="st1" width="1" height="17.55"/>
</g>
<g>
	<rect x="11.83" y="472.53" class="st1" width="1" height="17.55"/>
</g>
<g>
	<polygon class="st1" points="9.76,483.48 4.21,483.48 4.21,480.26 7.26,480.26 7.26,481.26 5.21,481.26 5.21,482.48 8.76,482.48 
		8.76,477.6 4.21,477.6 4.21,468.95 9.76,468.95 9.76,474.21 8.76,474.21 8.76,469.95 5.21,469.95 5.21,476.6 9.76,476.6 	"/>
</g>
<g>
	<rect x="2.11" y="454.98" class="st1" width="1" height="17.55"/>
</g>
<g>
	<rect y="454.98" class="st1" width="1" height="17.55"/>
</g>
<g>
	<rect x="13.94" y="454.98" class="st1" width="1" height="17.55"/>
</g>
<g>
	<rect x="11.83" y="454.98" class="st1" width="1" height="17.55"/>
</g>
<g>
	<polygon class="st1" points="9.76,465.93 4.21,465.93 4.21,462.71 7.26,462.71 7.26,463.71 5.21,463.71 5.21,464.93 8.76,464.93 
		8.76,460.05 4.21,460.05 4.21,451.4 9.76,451.4 9.76,456.67 8.76,456.67 8.76,452.4 5.21,452.4 5.21,459.05 9.76,459.05 	"/>
</g>
<g>
	<rect x="2.11" y="437.43" class="st1" width="1" height="17.55"/>
</g>
<g>
	<rect y="437.43" class="st1" width="1" height="17.55"/>
</g>
<g>
	<rect x="13.94" y="437.43" class="st1" width="1" height="17.55"/>
</g>
<g>
	<rect x="11.83" y="437.43" class="st1" width="1" height="17.55"/>
</g>
<g>
	<polygon class="st1" points="9.76,448.38 4.21,448.38 4.21,445.16 7.26,445.16 7.26,446.16 5.21,446.16 5.21,447.38 8.76,447.38 
		8.76,442.5 4.21,442.5 4.21,433.85 9.76,433.85 9.76,439.12 8.76,439.12 8.76,434.85 5.21,434.85 5.21,441.5 9.76,441.5 	"/>
</g>
<g>
	<rect x="2.11" y="419.88" class="st1" width="1" height="17.55"/>
</g>
<g>
	<rect y="419.88" class="st1" width="1" height="17.55"/>
</g>
<g>
	<rect x="13.94" y="419.88" class="st1" width="1" height="17.55"/>
</g>
<g>
	<rect x="11.83" y="419.88" class="st1" width="1" height="17.55"/>
</g>
<g>
	<polygon class="st1" points="9.76,430.83 4.21,430.83 4.21,427.61 7.26,427.61 7.26,428.61 5.21,428.61 5.21,429.83 8.76,429.83 
		8.76,424.95 4.21,424.95 4.21,416.3 9.76,416.3 9.76,421.57 8.76,421.57 8.76,417.3 5.21,417.3 5.21,423.95 9.76,423.95 	"/>
</g>
<g>
	<rect x="2.11" y="402.33" class="st1" width="1" height="17.55"/>
</g>
<g>
	<rect y="402.33" class="st1" width="1" height="17.55"/>
</g>
<g>
	<rect x="13.94" y="402.33" class="st1" width="1" height="17.55"/>
</g>
<g>
	<rect x="11.83" y="402.33" class="st1" width="1" height="17.55"/>
</g>
<g>
	<polygon class="st1" points="9.76,413.28 4.21,413.28 4.21,410.06 7.26,410.06 7.26,411.06 5.21,411.06 5.21,412.28 8.76,412.28 
		8.76,407.4 4.21,407.4 4.21,398.75 9.76,398.75 9.76,404.02 8.76,404.02 8.76,399.75 5.21,399.75 5.21,406.4 9.76,406.4 	"/>
</g>
<g>
	<rect x="2.11" y="384.79" class="st1" width="1" height="17.55"/>
</g>
<g>
	<rect y="384.79" class="st1" width="1" height="17.55"/>
</g>
<g>
	<rect x="13.94" y="384.79" class="st1" width="1" height="17.55"/>
</g>
<g>
	<rect x="11.83" y="384.79" class="st1" width="1" height="17.55"/>
</g>
<g>
	<polygon class="st1" points="9.76,395.73 4.21,395.73 4.21,392.51 7.26,392.51 7.26,393.51 5.21,393.51 5.21,394.73 8.76,394.73 
		8.76,389.85 4.21,389.85 4.21,381.2 9.76,381.2 9.76,386.47 8.76,386.47 8.76,382.2 5.21,382.2 5.21,388.85 9.76,388.85 	"/>
</g>
<g>
	<rect x="2.11" y="367.24" class="st1" width="1" height="17.55"/>
</g>
<g>
	<rect y="367.24" class="st1" width="1" height="17.55"/>
</g>
<g>
	<rect x="13.94" y="367.24" class="st1" width="1" height="17.55"/>
</g>
<g>
	<rect x="11.83" y="367.24" class="st1" width="1" height="17.55"/>
</g>
<g>
	<polygon class="st1" points="9.76,378.18 4.21,378.18 4.21,374.96 7.26,374.96 7.26,375.96 5.21,375.96 5.21,377.18 8.76,377.18 
		8.76,372.3 4.21,372.3 4.21,363.65 9.76,363.65 9.76,368.92 8.76,368.92 8.76,364.65 5.21,364.65 5.21,371.3 9.76,371.3 	"/>
</g>
<g>
	<rect x="2.11" y="349.69" class="st1" width="1" height="17.55"/>
</g>
<g>
	<rect y="349.69" class="st1" width="1" height="17.55"/>
</g>
<g>
	<rect x="13.94" y="349.69" class="st1" width="1" height="17.55"/>
</g>
<g>
	<rect x="11.83" y="349.69" class="st1" width="1" height="17.55"/>
</g>
<g>
	<polygon class="st1" points="9.76,360.63 4.21,360.63 4.21,357.41 7.26,357.41 7.26,358.41 5.21,358.41 5.21,359.63 8.76,359.63 
		8.76,354.75 4.21,354.75 4.21,346.1 9.76,346.1 9.76,351.37 8.76,351.37 8.76,347.1 5.21,347.1 5.21,353.75 9.76,353.75 	"/>
</g>
<g>
	<rect x="2.11" y="332.14" class="st1" width="1" height="17.55"/>
</g>
<g>
	<rect y="332.14" class="st1" width="1" height="17.55"/>
</g>
<g>
	<rect x="13.94" y="332.14" class="st1" width="1" height="17.55"/>
</g>
<g>
	<rect x="11.83" y="332.14" class="st1" width="1" height="17.55"/>
</g>
<g>
	<polygon class="st1" points="9.76,343.08 4.21,343.08 4.21,339.86 7.26,339.86 7.26,340.86 5.21,340.86 5.21,342.08 8.76,342.08 
		8.76,337.2 4.21,337.2 4.21,328.55 9.76,328.55 9.76,333.82 8.76,333.82 8.76,329.55 5.21,329.55 5.21,336.2 9.76,336.2 	"/>
</g>
<g>
	<rect x="2.11" y="314.59" class="st1" width="1" height="17.55"/>
</g>
<g>
	<rect y="314.59" class="st1" width="1" height="17.55"/>
</g>
<g>
	<rect x="13.94" y="314.59" class="st1" width="1" height="17.55"/>
</g>
<g>
	<rect x="11.83" y="314.59" class="st1" width="1" height="17.55"/>
</g>
<g>
	<polygon class="st1" points="9.76,325.53 4.21,325.53 4.21,322.31 7.26,322.31 7.26,323.31 5.21,323.31 5.21,324.53 8.76,324.53 
		8.76,319.65 4.21,319.65 4.21,311 9.76,311 9.76,316.27 8.76,316.27 8.76,312 5.21,312 5.21,318.65 9.76,318.65 	"/>
</g>
<g>
	<rect x="2.11" y="297.04" class="st1" width="1" height="17.55"/>
</g>
<g>
	<rect y="297.04" class="st1" width="1" height="17.55"/>
</g>
<g>
	<rect x="13.94" y="297.04" class="st1" width="1" height="17.55"/>
</g>
<g>
	<rect x="11.83" y="297.04" class="st1" width="1" height="17.55"/>
</g>
<g>
	<polygon class="st1" points="9.76,307.98 4.21,307.98 4.21,304.76 7.26,304.76 7.26,305.76 5.21,305.76 5.21,306.98 8.76,306.98 
		8.76,302.1 4.21,302.1 4.21,293.45 9.76,293.45 9.76,298.72 8.76,298.72 8.76,294.45 5.21,294.45 5.21,301.1 9.76,301.1 	"/>
</g>
<g>
	<rect x="2.11" y="279.49" class="st1" width="1" height="17.55"/>
</g>
<g>
	<rect y="279.49" class="st1" width="1" height="17.55"/>
</g>
<g>
	<rect x="13.94" y="279.49" class="st1" width="1" height="17.55"/>
</g>
<g>
	<rect x="11.83" y="279.49" class="st1" width="1" height="17.55"/>
</g>
<g>
	<polygon class="st1" points="9.76,290.43 4.21,290.43 4.21,287.21 7.26,287.21 7.26,288.21 5.21,288.21 5.21,289.43 8.76,289.43 
		8.76,284.55 4.21,284.55 4.21,275.9 9.76,275.9 9.76,281.17 8.76,281.17 8.76,276.9 5.21,276.9 5.21,283.55 9.76,283.55 	"/>
</g>
<g>
	<rect x="2.11" y="261.94" class="st1" width="1" height="17.55"/>
</g>
<g>
	<rect y="261.94" class="st1" width="1" height="17.55"/>
</g>
<g>
	<rect x="13.94" y="261.94" class="st1" width="1" height="17.55"/>
</g>
<g>
	<rect x="11.83" y="261.94" class="st1" width="1" height="17.55"/>
</g>
<g>
	<polygon class="st1" points="9.76,272.88 4.21,272.88 4.21,269.66 7.26,269.66 7.26,270.66 5.21,270.66 5.21,271.88 8.76,271.88 
		8.76,267 4.21,267 4.21,258.35 9.76,258.35 9.76,263.62 8.76,263.62 8.76,259.35 5.21,259.35 5.21,266 9.76,266 	"/>
</g>
<g>
	<rect x="2.11" y="244.39" class="st1" width="1" height="17.55"/>
</g>
<g>
	<rect y="244.39" class="st1" width="1" height="17.55"/>
</g>
<g>
	<rect x="13.94" y="244.39" class="st1" width="1" height="17.55"/>
</g>
<g>
	<rect x="11.83" y="244.39" class="st1" width="1" height="17.55"/>
</g>
<g>
	<polygon class="st1" points="9.76,255.33 4.21,255.33 4.21,252.11 7.26,252.11 7.26,253.11 5.21,253.11 5.21,254.33 8.76,254.33 
		8.76,249.45 4.21,249.45 4.21,240.8 9.76,240.8 9.76,246.07 8.76,246.07 8.76,241.8 5.21,241.8 5.21,248.45 9.76,248.45 	"/>
</g>
<g>
	<rect x="2.11" y="226.84" class="st1" width="1" height="17.55"/>
</g>
<g>
	<rect y="226.84" class="st1" width="1" height="17.55"/>
</g>
<g>
	<rect x="13.94" y="226.84" class="st1" width="1" height="17.55"/>
</g>
<g>
	<rect x="11.83" y="226.84" class="st1" width="1" height="17.55"/>
</g>
<g>
	<polygon class="st1" points="9.76,237.78 4.21,237.78 4.21,234.56 7.26,234.56 7.26,235.56 5.21,235.56 5.21,236.78 8.76,236.78 
		8.76,231.9 4.21,231.9 4.21,223.25 9.76,223.25 9.76,228.52 8.76,228.52 8.76,224.25 5.21,224.25 5.21,230.9 9.76,230.9 	"/>
</g>
<g>
	<rect x="2.11" y="209.29" class="st1" width="1" height="17.55"/>
</g>
<g>
	<rect y="209.29" class="st1" width="1" height="17.55"/>
</g>
<g>
	<rect x="13.94" y="209.29" class="st1" width="1" height="17.55"/>
</g>
<g>
	<rect x="11.83" y="209.29" class="st1" width="1" height="17.55"/>
</g>
<g>
	<polygon class="st1" points="9.76,220.23 4.21,220.23 4.21,217.01 7.26,217.01 7.26,218.01 5.21,218.01 5.21,219.23 8.76,219.23 
		8.76,214.35 4.21,214.35 4.21,205.7 9.76,205.7 9.76,210.97 8.76,210.97 8.76,206.7 5.21,206.7 5.21,213.35 9.76,213.35 	"/>
</g>
<g>
	<rect x="2.11" y="191.74" class="st1" width="1" height="17.55"/>
</g>
<g>
	<rect y="191.74" class="st1" width="1" height="17.55"/>
</g>
<g>
	<rect x="13.94" y="191.74" class="st1" width="1" height="17.55"/>
</g>
<g>
	<rect x="11.83" y="191.74" class="st1" width="1" height="17.55"/>
</g>
<g>
	<polygon class="st1" points="9.76,202.68 4.21,202.68 4.21,199.46 7.26,199.46 7.26,200.46 5.21,200.46 5.21,201.68 8.76,201.68 
		8.76,196.8 4.21,196.8 4.21,188.15 9.76,188.15 9.76,193.42 8.76,193.42 8.76,189.15 5.21,189.15 5.21,195.8 9.76,195.8 	"/>
</g>
<g>
	<rect x="2.11" y="174.19" class="st1" width="1" height="17.55"/>
</g>
<g>
	<rect y="174.19" class="st1" width="1" height="17.55"/>
</g>
<g>
	<rect x="13.94" y="174.19" class="st1" width="1" height="17.55"/>
</g>
<g>
	<rect x="11.83" y="174.19" class="st1" width="1" height="17.55"/>
</g>
<g>
	<polygon class="st1" points="9.76,185.13 4.21,185.13 4.21,181.91 7.26,181.91 7.26,182.91 5.21,182.91 5.21,184.13 8.76,184.13 
		8.76,179.25 4.21,179.25 4.21,170.6 9.76,170.6 9.76,175.87 8.76,175.87 8.76,171.6 5.21,171.6 5.21,178.25 9.76,178.25 	"/>
</g>
<g>
	<rect x="2.11" y="156.64" class="st1" width="1" height="17.55"/>
</g>
<g>
	<rect y="156.64" class="st1" width="1" height="17.55"/>
</g>
<g>
	<rect x="13.94" y="156.64" class="st1" width="1" height="17.55"/>
</g>
<g>
	<rect x="11.83" y="156.64" class="st1" width="1" height="17.55"/>
</g>
<g>
	<polygon class="st1" points="9.76,167.58 4.21,167.58 4.21,164.36 7.26,164.36 7.26,165.36 5.21,165.36 5.21,166.58 8.76,166.58 
		8.76,161.7 4.21,161.7 4.21,153.05 9.76,153.05 9.76,158.32 8.76,158.32 8.76,154.05 5.21,154.05 5.21,160.7 9.76,160.7 	"/>
</g>
<g>
	<rect x="2.11" y="139.09" class="st1" width="1" height="17.55"/>
</g>
<g>
	<rect y="139.09" class="st1" width="1" height="17.55"/>
</g>
<g>
	<rect x="13.94" y="139.09" class="st1" width="1" height="17.55"/>
</g>
<g>
	<rect x="11.83" y="139.09" class="st1" width="1" height="17.55"/>
</g>
<g>
	<polygon class="st1" points="9.76,150.03 4.21,150.03 4.21,146.81 7.26,146.81 7.26,147.81 5.21,147.81 5.21,149.03 8.76,149.03 
		8.76,144.15 4.21,144.15 4.21,135.5 9.76,135.5 9.76,140.77 8.76,140.77 8.76,136.5 5.21,136.5 5.21,143.15 9.76,143.15 	"/>
</g>
<g>
	<rect x="2.11" y="121.54" class="st1" width="1" height="17.55"/>
</g>
<g>
	<rect y="121.54" class="st1" width="1" height="17.55"/>
</g>
<g>
	<rect x="13.94" y="121.54" class="st1" width="1" height="17.55"/>
</g>
<g>
	<rect x="11.83" y="121.54" class="st1" width="1" height="17.55"/>
</g>
<g>
	<polygon class="st1" points="9.76,132.48 4.21,132.48 4.21,129.26 7.26,129.26 7.26,130.26 5.21,130.26 5.21,131.48 8.76,131.48 
		8.76,126.6 4.21,126.6 4.21,117.95 9.76,117.95 9.76,123.22 8.76,123.22 8.76,118.95 5.21,118.95 5.21,125.6 9.76,125.6 	"/>
</g>
<g>
	<rect x="2.11" y="103.99" class="st1" width="1" height="17.55"/>
</g>
<g>
	<rect y="103.99" class="st1" width="1" height="17.55"/>
</g>
<g>
	<rect x="13.94" y="103.99" class="st1" width="1" height="17.55"/>
</g>
<g>
	<rect x="11.83" y="103.99" class="st1" width="1" height="17.55"/>
</g>
<g>
	<polygon class="st1" points="9.76,114.93 4.21,114.93 4.21,111.71 7.26,111.71 7.26,112.71 5.21,112.71 5.21,113.93 8.76,113.93 
		8.76,109.05 4.21,109.05 4.21,100.4 9.76,100.4 9.76,105.67 8.76,105.67 8.76,101.4 5.21,101.4 5.21,108.05 9.76,108.05 	"/>
</g>
<g>
	<rect x="2.11" y="86.44" class="st1" width="1" height="17.55"/>
</g>
<g>
	<rect y="86.44" class="st1" width="1" height="17.55"/>
</g>
<g>
	<rect x="13.94" y="86.44" class="st1" width="1" height="17.55"/>
</g>
<g>
	<rect x="11.83" y="86.44" class="st1" width="1" height="17.55"/>
</g>
<g>
	<polygon class="st1" points="9.76,97.38 4.21,97.38 4.21,94.16 7.26,94.16 7.26,95.16 5.21,95.16 5.21,96.38 8.76,96.38 8.76,91.5 
		4.21,91.5 4.21,82.85 9.76,82.85 9.76,88.12 8.76,88.12 8.76,83.85 5.21,83.85 5.21,90.5 9.76,90.5 	"/>
</g>
<g>
	<rect x="2.11" y="68.89" class="st1" width="1" height="17.55"/>
</g>
<g>
	<rect y="68.89" class="st1" width="1" height="17.55"/>
</g>
<g>
	<rect x="13.94" y="68.89" class="st1" width="1" height="17.55"/>
</g>
<g>
	<rect x="11.83" y="68.89" class="st1" width="1" height="17.55"/>
</g>
<g>
	<polygon class="st1" points="9.76,79.83 4.21,79.83 4.21,76.61 7.26,76.61 7.26,77.61 5.21,77.61 5.21,78.83 8.76,78.83 
		8.76,73.95 4.21,73.95 4.21,65.3 9.76,65.3 9.76,70.57 8.76,70.57 8.76,66.3 5.21,66.3 5.21,72.95 9.76,72.95 	"/>
</g>
<g>
	<rect x="2.11" y="51.34" class="st1" width="1" height="17.55"/>
</g>
<g>
	<rect y="51.34" class="st1" width="1" height="17.55"/>
</g>
<g>
	<rect x="13.94" y="51.34" class="st1" width="1" height="17.55"/>
</g>
<g>
	<rect x="11.83" y="51.34" class="st1" width="1" height="17.55"/>
</g>
<g>
	<polygon class="st1" points="9.76,62.28 4.21,62.28 4.21,59.06 7.26,59.06 7.26,60.06 5.21,60.06 5.21,61.28 8.76,61.28 8.76,56.4 
		4.21,56.4 4.21,47.75 9.76,47.75 9.76,53.02 8.76,53.02 8.76,48.75 5.21,48.75 5.21,55.4 9.76,55.4 	"/>
</g>
<g>
	<rect x="2.11" y="33.79" class="st1" width="1" height="17.55"/>
</g>
<g>
	<rect y="33.79" class="st1" width="1" height="17.55"/>
</g>
<g>
	<rect x="13.94" y="33.79" class="st1" width="1" height="17.55"/>
</g>
<g>
	<rect x="11.83" y="33.79" class="st1" width="1" height="17.55"/>
</g>
<g>
	<polygon class="st1" points="9.76,44.73 4.21,44.73 4.21,41.51 7.26,41.51 7.26,42.51 5.21,42.51 5.21,43.73 8.76,43.73 
		8.76,38.85 4.21,38.85 4.21,30.2 9.76,30.2 9.76,35.47 8.76,35.47 8.76,31.2 5.21,31.2 5.21,37.85 9.76,37.85 	"/>
</g>
<rect x="2.11" y="2.11" class="st1" width="1" height="31.68"/>
<rect class="st1" width="1" height="33.79"/>
<rect x="13.94" y="14.94" class="st1" width="1" height="18.85"/>
<rect x="11.83" y="12.83" class="st1" width="1" height="20.96"/>
<polygon class="st1" points="9.76,27.18 4.21,27.18 4.21,23.96 7.26,23.96 7.26,24.96 5.21,24.96 5.21,26.18 8.76,26.18 8.76,21.31 
	4.21,21.31 4.21,12.65 9.76,12.65 9.76,17.92 8.76,17.92 8.76,13.65 5.21,13.65 5.21,20.31 9.76,20.31 "/>
<g>
	<rect x="16.24" y="2.11" class="st1" width="17.7" height="1"/>
</g>
<g>
	<rect x="16.24" class="st1" width="17.7" height="1"/>
</g>
<g>
	<rect x="16.24" y="13.94" class="st1" width="17.7" height="1"/>
</g>
<g>
	<rect x="16.24" y="11.83" class="st1" width="17.7" height="1"/>
</g>
<g>
	<rect x="33.94" y="2.11" class="st1" width="17.7" height="1"/>
</g>
<g>
	<rect x="33.94" class="st1" width="17.7" height="1"/>
</g>
<g>
	<rect x="33.94" y="13.94" class="st1" width="17.7" height="1"/>
</g>
<g>
	<rect x="33.94" y="11.83" class="st1" width="17.7" height="1"/>
</g>
<g>
	<rect x="51.64" y="2.11" class="st1" width="17.7" height="1"/>
</g>
<g>
	<rect x="51.64" class="st1" width="17.7" height="1"/>
</g>
<g>
	<rect x="51.64" y="13.94" class="st1" width="17.7" height="1"/>
</g>
<g>
	<rect x="51.64" y="11.83" class="st1" width="17.7" height="1"/>
</g>
<g>
	<rect x="69.33" y="2.11" class="st1" width="17.7" height="1"/>
</g>
<g>
	<rect x="69.33" class="st1" width="17.7" height="1"/>
</g>
<g>
	<rect x="69.33" y="13.94" class="st1" width="17.7" height="1"/>
</g>
<g>
	<rect x="69.33" y="11.83" class="st1" width="17.7" height="1"/>
</g>
<g>
	<rect x="87.03" y="2.11" class="st1" width="17.7" height="1"/>
</g>
<g>
	<rect x="87.03" class="st1" width="17.7" height="1"/>
</g>
<g>
	<rect x="87.03" y="13.94" class="st1" width="17.7" height="1"/>
</g>
<g>
	<rect x="87.03" y="11.83" class="st1" width="17.7" height="1"/>
</g>
<g>
	<rect x="104.73" y="2.11" class="st1" width="17.7" height="1"/>
</g>
<g>
	<rect x="104.73" class="st1" width="17.7" height="1"/>
</g>
<g>
	<rect x="104.73" y="13.94" class="st1" width="17.7" height="1"/>
</g>
<g>
	<rect x="104.73" y="11.83" class="st1" width="17.7" height="1"/>
</g>
<g>
	<rect x="122.43" y="2.11" class="st1" width="17.7" height="1"/>
</g>
<g>
	<rect x="122.43" class="st1" width="17.7" height="1"/>
</g>
<g>
	<rect x="122.43" y="13.94" class="st1" width="17.7" height="1"/>
</g>
<g>
	<rect x="122.43" y="11.83" class="st1" width="17.7" height="1"/>
</g>
<g>
	<rect x="140.12" y="2.11" class="st1" width="17.7" height="1"/>
</g>
<g>
	<rect x="140.12" class="st1" width="17.7" height="1"/>
</g>
<g>
	<rect x="140.12" y="13.94" class="st1" width="17.7" height="1"/>
</g>
<g>
	<rect x="140.12" y="11.83" class="st1" width="17.7" height="1"/>
</g>
<g>
	<rect x="157.82" y="2.11" class="st1" width="17.7" height="1"/>
</g>
<g>
	<rect x="157.82" class="st1" width="17.7" height="1"/>
</g>
<g>
	<rect x="157.82" y="13.94" class="st1" width="17.7" height="1"/>
</g>
<g>
	<rect x="157.82" y="11.83" class="st1" width="17.7" height="1"/>
</g>
<g>
	<rect x="175.52" y="2.11" class="st1" width="17.7" height="1"/>
</g>
<g>
	<rect x="175.52" class="st1" width="17.7" height="1"/>
</g>
<g>
	<rect x="175.52" y="13.94" class="st1" width="17.7" height="1"/>
</g>
<g>
	<rect x="175.52" y="11.83" class="st1" width="17.7" height="1"/>
</g>
<g>
	<rect x="193.22" y="2.11" class="st1" width="17.7" height="1"/>
</g>
<g>
	<rect x="193.22" class="st1" width="17.7" height="1"/>
</g>
<g>
	<rect x="193.22" y="13.94" class="st1" width="17.7" height="1"/>
</g>
<g>
	<rect x="193.22" y="11.83" class="st1" width="17.7" height="1"/>
</g>
<g>
	<rect x="210.91" y="2.11" class="st1" width="17.7" height="1"/>
</g>
<g>
	<rect x="210.91" class="st1" width="17.7" height="1"/>
</g>
<g>
	<rect x="210.91" y="13.94" class="st1" width="17.7" height="1"/>
</g>
<g>
	<rect x="210.91" y="11.83" class="st1" width="17.7" height="1"/>
</g>
<g>
	<rect x="228.61" y="2.11" class="st1" width="17.7" height="1"/>
</g>
<g>
	<rect x="228.61" class="st1" width="17.7" height="1"/>
</g>
<g>
	<rect x="228.61" y="13.94" class="st1" width="17.7" height="1"/>
</g>
<g>
	<rect x="228.61" y="11.83" class="st1" width="17.7" height="1"/>
</g>
<g>
	<rect x="246.31" y="2.11" class="st1" width="17.7" height="1"/>
</g>
<g>
	<rect x="246.31" class="st1" width="17.7" height="1"/>
</g>
<g>
	<rect x="246.31" y="13.94" class="st1" width="17.7" height="1"/>
</g>
<g>
	<rect x="246.31" y="11.83" class="st1" width="17.7" height="1"/>
</g>
<g>
	<rect x="264.01" y="2.11" class="st1" width="17.7" height="1"/>
</g>
<g>
	<rect x="264.01" class="st1" width="17.7" height="1"/>
</g>
<g>
	<rect x="264.01" y="13.94" class="st1" width="17.7" height="1"/>
</g>
<g>
	<rect x="264.01" y="11.83" class="st1" width="17.7" height="1"/>
</g>
<g>
	<rect x="281.71" y="2.11" class="st1" width="17.7" height="1"/>
</g>
<g>
	<rect x="281.71" class="st1" width="17.7" height="1"/>
</g>
<g>
	<rect x="281.71" y="13.94" class="st1" width="17.7" height="1"/>
</g>
<g>
	<rect x="281.71" y="11.83" class="st1" width="17.7" height="1"/>
</g>
<g>
	<rect x="299.4" y="2.11" class="st1" width="17.7" height="1"/>
</g>
<g>
	<rect x="299.4" class="st1" width="17.7" height="1"/>
</g>
<g>
	<rect x="299.4" y="13.94" class="st1" width="17.7" height="1"/>
</g>
<g>
	<rect x="299.4" y="11.83" class="st1" width="17.7" height="1"/>
</g>
<g>
	<rect x="317.1" y="2.11" class="st1" width="17.7" height="1"/>
</g>
<g>
	<rect x="317.1" class="st1" width="17.7" height="1"/>
</g>
<g>
	<rect x="317.1" y="13.94" class="st1" width="17.7" height="1"/>
</g>
<g>
	<rect x="317.1" y="11.83" class="st1" width="17.7" height="1"/>
</g>
<g>
	<rect x="334.8" y="2.11" class="st1" width="17.7" height="1"/>
</g>
<g>
	<rect x="334.8" class="st1" width="17.7" height="1"/>
</g>
<g>
	<rect x="334.8" y="13.94" class="st1" width="17.7" height="1"/>
</g>
<g>
	<rect x="334.8" y="11.83" class="st1" width="17.7" height="1"/>
</g>
<g>
	<rect x="352.5" y="2.11" class="st1" width="17.7" height="1"/>
</g>
<g>
	<rect x="352.5" class="st1" width="17.7" height="1"/>
</g>
<g>
	<rect x="352.5" y="13.94" class="st1" width="17.7" height="1"/>
</g>
<g>
	<rect x="352.5" y="11.83" class="st1" width="17.7" height="1"/>
</g>
<g>
	<rect x="370.19" y="2.11" class="st1" width="17.7" height="1"/>
</g>
<g>
	<rect x="370.19" class="st1" width="17.7" height="1"/>
</g>
<g>
	<rect x="370.19" y="13.94" class="st1" width="17.7" height="1"/>
</g>
<g>
	<rect x="370.19" y="11.83" class="st1" width="17.7" height="1"/>
</g>
<g>
	<rect x="387.89" y="2.11" class="st1" width="17.7" height="1"/>
</g>
<g>
	<rect x="387.89" class="st1" width="17.7" height="1"/>
</g>
<g>
	<rect x="387.89" y="13.94" class="st1" width="17.7" height="1"/>
</g>
<g>
	<rect x="387.89" y="11.83" class="st1" width="17.7" height="1"/>
</g>
<g>
	<rect x="405.59" y="2.11" class="st1" width="17.7" height="1"/>
</g>
<g>
	<rect x="405.59" class="st1" width="17.7" height="1"/>
</g>
<g>
	<rect x="405.59" y="13.94" class="st1" width="17.7" height="1"/>
</g>
<g>
	<rect x="405.59" y="11.83" class="st1" width="17.7" height="1"/>
</g>
<g>
	<rect x="423.29" y="2.11" class="st1" width="17.7" height="1"/>
</g>
<g>
	<rect x="423.29" class="st1" width="17.7" height="1"/>
</g>
<g>
	<rect x="423.29" y="13.94" class="st1" width="17.7" height="1"/>
</g>
<g>
	<rect x="423.29" y="11.83" class="st1" width="17.7" height="1"/>
</g>
<g>
	<rect x="440.98" y="2.11" class="st1" width="17.7" height="1"/>
</g>
<g>
	<rect x="440.98" class="st1" width="17.7" height="1"/>
</g>
<g>
	<rect x="440.98" y="13.94" class="st1" width="17.7" height="1"/>
</g>
<g>
	<rect x="440.98" y="11.83" class="st1" width="17.7" height="1"/>
</g>
<g>
	<rect x="458.68" y="2.11" class="st1" width="17.7" height="1"/>
</g>
<g>
	<rect x="458.68" class="st1" width="17.7" height="1"/>
</g>
<g>
	<rect x="458.68" y="13.94" class="st1" width="17.7" height="1"/>
</g>
<g>
	<rect x="458.68" y="11.83" class="st1" width="17.7" height="1"/>
</g>
<g>
	<rect x="476.38" y="2.11" class="st1" width="17.7" height="1"/>
</g>
<g>
	<rect x="476.38" class="st1" width="17.7" height="1"/>
</g>
<g>
	<rect x="476.38" y="13.94" class="st1" width="17.7" height="1"/>
</g>
<g>
	<rect x="476.38" y="11.83" class="st1" width="17.7" height="1"/>
</g>
<g>
	<rect x="494.08" y="2.11" class="st1" width="17.7" height="1"/>
</g>
<g>
	<rect x="494.08" class="st1" width="17.7" height="1"/>
</g>
<g>
	<rect x="494.08" y="13.94" class="st1" width="17.7" height="1"/>
</g>
<g>
	<rect x="494.08" y="11.83" class="st1" width="17.7" height="1"/>
</g>
<g>
	<rect x="511.77" y="2.11" class="st1" width="17.7" height="1"/>
</g>
<g>
	<rect x="511.77" class="st1" width="17.7" height="1"/>
</g>
<g>
	<rect x="511.77" y="13.94" class="st1" width="17.7" height="1"/>
</g>
<g>
	<rect x="511.77" y="11.83" class="st1" width="17.7" height="1"/>
</g>
<g>
	<rect x="529.47" y="2.11" class="st1" width="17.7" height="1"/>
</g>
<g>
	<rect x="529.47" class="st1" width="17.7" height="1"/>
</g>
<g>
	<rect x="529.47" y="13.94" class="st1" width="17.7" height="1"/>
</g>
<g>
	<rect x="529.47" y="11.83" class="st1" width="17.7" height="1"/>
</g>
<g>
	<rect x="547.17" y="2.11" class="st1" width="17.7" height="1"/>
</g>
<g>
	<rect x="547.17" class="st1" width="17.7" height="1"/>
</g>
<g>
	<rect x="547.17" y="13.94" class="st1" width="17.7" height="1"/>
</g>
<g>
	<rect x="547.17" y="11.83" class="st1" width="17.7" height="1"/>
</g>
<g>
	<rect x="564.87" y="2.11" class="st1" width="17.7" height="1"/>
</g>
<g>
	<rect x="564.87" class="st1" width="17.7" height="1"/>
</g>
<g>
	<rect x="564.87" y="13.94" class="st1" width="17.7" height="1"/>
</g>
<g>
	<rect x="564.87" y="11.83" class="st1" width="17.7" height="1"/>
</g>
<g>
	<rect x="582.56" y="2.11" class="st1" width="17.7" height="1"/>
</g>
<g>
	<rect x="582.56" class="st1" width="17.7" height="1"/>
</g>
<g>
	<rect x="582.56" y="13.94" class="st1" width="17.7" height="1"/>
</g>
<g>
	<rect x="582.56" y="11.83" class="st1" width="17.7" height="1"/>
</g>
<g>
	<rect x="600.26" y="2.11" class="st1" width="17.7" height="1"/>
</g>
<g>
	<rect x="600.26" class="st1" width="17.7" height="1"/>
</g>
<g>
	<rect x="600.26" y="13.94" class="st1" width="17.7" height="1"/>
</g>
<g>
	<rect x="600.26" y="11.83" class="st1" width="17.7" height="1"/>
</g>
<g>
	<rect x="617.96" y="2.11" class="st1" width="17.7" height="1"/>
</g>
<g>
	<rect x="617.96" class="st1" width="17.7" height="1"/>
</g>
<g>
	<rect x="617.96" y="13.94" class="st1" width="17.7" height="1"/>
</g>
<g>
	<rect x="617.96" y="11.83" class="st1" width="17.7" height="1"/>
</g>
<g>
	<rect x="635.66" y="2.11" class="st1" width="17.7" height="1"/>
</g>
<g>
	<rect x="635.66" class="st1" width="17.7" height="1"/>
</g>
<g>
	<rect x="635.66" y="13.94" class="st1" width="17.7" height="1"/>
</g>
<g>
	<rect x="635.66" y="11.83" class="st1" width="17.7" height="1"/>
</g>
<g>
	<rect x="653.36" y="2.11" class="st1" width="17.7" height="1"/>
</g>
<g>
	<rect x="653.36" class="st1" width="17.7" height="1"/>
</g>
<g>
	<rect x="653.36" y="13.94" class="st1" width="17.7" height="1"/>
</g>
<g>
	<rect x="653.36" y="11.83" class="st1" width="17.7" height="1"/>
</g>
<g>
	<rect x="671.05" y="2.11" class="st1" width="17.7" height="1"/>
</g>
<g>
	<rect x="671.05" class="st1" width="17.7" height="1"/>
</g>
<g>
	<rect x="671.05" y="13.94" class="st1" width="17.7" height="1"/>
</g>
<g>
	<rect x="671.05" y="11.83" class="st1" width="17.7" height="1"/>
</g>
<g>
	<g>
		<polygon class="st1" points="37.42,9.76 32.12,9.76 32.12,8.76 36.42,8.76 36.42,5.21 29.71,5.21 29.71,9.76 22.78,9.76 
			22.78,4.21 26.02,4.21 26.02,7.26 25.02,7.26 25.02,5.21 23.78,5.21 23.78,8.76 28.71,8.76 28.71,4.21 37.42,4.21 		"/>
	</g>
	<g>
		<polygon class="st1" points="19.51,9.76 14.2,9.76 14.2,8.76 18.51,8.76 18.51,5.21 11.79,5.21 11.79,9.76 4.87,9.76 4.87,4.21 
			8.1,4.21 8.1,7.26 7.1,7.26 7.1,5.21 5.87,5.21 5.87,8.76 10.79,8.76 10.79,4.21 19.51,4.21 		"/>
	</g>
	<g>
		<polygon class="st1" points="55.34,9.76 50.03,9.76 50.03,8.76 54.34,8.76 54.34,5.21 47.62,5.21 47.62,9.76 40.7,9.76 40.7,4.21 
			43.93,4.21 43.93,7.26 42.93,7.26 42.93,5.21 41.7,5.21 41.7,8.76 46.62,8.76 46.62,4.21 55.34,4.21 		"/>
	</g>
	<g>
		<polygon class="st1" points="73.26,9.76 67.95,9.76 67.95,8.76 72.26,8.76 72.26,5.21 65.54,5.21 65.54,9.76 58.61,9.76 
			58.61,4.21 61.85,4.21 61.85,7.26 60.85,7.26 60.85,5.21 59.61,5.21 59.61,8.76 64.54,8.76 64.54,4.21 73.26,4.21 		"/>
	</g>
	<g>
		<polygon class="st1" points="91.17,9.76 85.86,9.76 85.86,8.76 90.17,8.76 90.17,5.21 83.46,5.21 83.46,9.76 76.53,9.76 
			76.53,4.21 79.77,4.21 79.77,7.26 78.77,7.26 78.77,5.21 77.53,5.21 77.53,8.76 82.46,8.76 82.46,4.21 91.17,4.21 		"/>
	</g>
	<g>
		<polygon class="st1" points="109.09,9.76 103.78,9.76 103.78,8.76 108.09,8.76 108.09,5.21 101.37,5.21 101.37,9.76 94.45,9.76 
			94.45,4.21 97.68,4.21 97.68,7.26 96.68,7.26 96.68,5.21 95.45,5.21 95.45,8.76 100.37,8.76 100.37,4.21 109.09,4.21 		"/>
	</g>
	<g>
		<polygon class="st1" points="127.01,9.76 121.7,9.76 121.7,8.76 126.01,8.76 126.01,5.21 119.29,5.21 119.29,9.76 112.36,9.76 
			112.36,4.21 115.6,4.21 115.6,7.26 114.6,7.26 114.6,5.21 113.36,5.21 113.36,8.76 118.29,8.76 118.29,4.21 127.01,4.21 		"/>
	</g>
	<g>
		<polygon class="st1" points="144.92,9.76 139.61,9.76 139.61,8.76 143.92,8.76 143.92,5.21 137.21,5.21 137.21,9.76 130.28,9.76 
			130.28,4.21 133.52,4.21 133.52,7.26 132.52,7.26 132.52,5.21 131.28,5.21 131.28,8.76 136.21,8.76 136.21,4.21 144.92,4.21 		"/>
	</g>
	<g>
		<polygon class="st1" points="162.84,9.76 157.53,9.76 157.53,8.76 161.84,8.76 161.84,5.21 155.12,5.21 155.12,9.76 148.19,9.76 
			148.19,4.21 151.43,4.21 151.43,7.26 150.43,7.26 150.43,5.21 149.19,5.21 149.19,8.76 154.12,8.76 154.12,4.21 162.84,4.21 		"/>
	</g>
	<g>
		<polygon class="st1" points="180.75,9.76 175.45,9.76 175.45,8.76 179.75,8.76 179.75,5.21 173.04,5.21 173.04,9.76 166.11,9.76 
			166.11,4.21 169.35,4.21 169.35,7.26 168.35,7.26 168.35,5.21 167.11,5.21 167.11,8.76 172.04,8.76 172.04,4.21 180.75,4.21 		"/>
	</g>
	<g>
		<polygon class="st1" points="198.67,9.76 193.36,9.76 193.36,8.76 197.67,8.76 197.67,5.21 190.95,5.21 190.95,9.76 184.03,9.76 
			184.03,4.21 187.26,4.21 187.26,7.26 186.26,7.26 186.26,5.21 185.03,5.21 185.03,8.76 189.95,8.76 189.95,4.21 198.67,4.21 		"/>
	</g>
	<g>
		<polygon class="st1" points="216.59,9.76 211.28,9.76 211.28,8.76 215.59,8.76 215.59,5.21 208.87,5.21 208.87,9.76 201.94,9.76 
			201.94,4.21 205.18,4.21 205.18,7.26 204.18,7.26 204.18,5.21 202.94,5.21 202.94,8.76 207.87,8.76 207.87,4.21 216.59,4.21 		"/>
	</g>
	<g>
		<polygon class="st1" points="234.5,9.76 229.19,9.76 229.19,8.76 233.5,8.76 233.5,5.21 226.79,5.21 226.79,9.76 219.86,9.76 
			219.86,4.21 223.1,4.21 223.1,7.26 222.1,7.26 222.1,5.21 220.86,5.21 220.86,8.76 225.79,8.76 225.79,4.21 234.5,4.21 		"/>
	</g>
	<g>
		<polygon class="st1" points="252.42,9.76 247.11,9.76 247.11,8.76 251.42,8.76 251.42,5.21 244.7,5.21 244.7,9.76 237.77,9.76 
			237.77,4.21 241.01,4.21 241.01,7.26 240.01,7.26 240.01,5.21 238.77,5.21 238.77,8.76 243.7,8.76 243.7,4.21 252.42,4.21 		"/>
	</g>
	<g>
		<polygon class="st1" points="270.33,9.76 265.03,9.76 265.03,8.76 269.33,8.76 269.33,5.21 262.62,5.21 262.62,9.76 255.69,9.76 
			255.69,4.21 258.93,4.21 258.93,7.26 257.93,7.26 257.93,5.21 256.69,5.21 256.69,8.76 261.62,8.76 261.62,4.21 270.33,4.21 		"/>
	</g>
	<g>
		<polygon class="st1" points="288.25,9.76 282.94,9.76 282.94,8.76 287.25,8.76 287.25,5.21 280.53,5.21 280.53,9.76 273.61,9.76 
			273.61,4.21 276.84,4.21 276.84,7.26 275.84,7.26 275.84,5.21 274.61,5.21 274.61,8.76 279.53,8.76 279.53,4.21 288.25,4.21 		"/>
	</g>
	<g>
		<polygon class="st1" points="306.17,9.76 300.86,9.76 300.86,8.76 305.17,8.76 305.17,5.21 298.45,5.21 298.45,9.76 291.52,9.76 
			291.52,4.21 294.76,4.21 294.76,7.26 293.76,7.26 293.76,5.21 292.52,5.21 292.52,8.76 297.45,8.76 297.45,4.21 306.17,4.21 		"/>
	</g>
	<g>
		<polygon class="st1" points="324.08,9.76 318.77,9.76 318.77,8.76 323.08,8.76 323.08,5.21 316.37,5.21 316.37,9.76 309.44,9.76 
			309.44,4.21 312.68,4.21 312.68,7.26 311.68,7.26 311.68,5.21 310.44,5.21 310.44,8.76 315.37,8.76 315.37,4.21 324.08,4.21 		"/>
	</g>
	<g>
		<polygon class="st1" points="342,9.76 336.69,9.76 336.69,8.76 341,8.76 341,5.21 334.28,5.21 334.28,9.76 327.36,9.76 
			327.36,4.21 330.59,4.21 330.59,7.26 329.59,7.26 329.59,5.21 328.36,5.21 328.36,8.76 333.28,8.76 333.28,4.21 342,4.21 		"/>
	</g>
	<g>
		<polygon class="st1" points="359.92,9.76 354.61,9.76 354.61,8.76 358.92,8.76 358.92,5.21 352.2,5.21 352.2,9.76 345.27,9.76 
			345.27,4.21 348.51,4.21 348.51,7.26 347.51,7.26 347.51,5.21 346.27,5.21 346.27,8.76 351.2,8.76 351.2,4.21 359.92,4.21 		"/>
	</g>
	<g>
		<polygon class="st1" points="377.83,9.76 372.52,9.76 372.52,8.76 376.83,8.76 376.83,5.21 370.12,5.21 370.12,9.76 363.19,9.76 
			363.19,4.21 366.42,4.21 366.42,7.26 365.42,7.26 365.42,5.21 364.19,5.21 364.19,8.76 369.12,8.76 369.12,4.21 377.83,4.21 		"/>
	</g>
	<g>
		<polygon class="st1" points="395.75,9.76 390.44,9.76 390.44,8.76 394.75,8.76 394.75,5.21 388.03,5.21 388.03,9.76 381.1,9.76 
			381.1,4.21 384.34,4.21 384.34,7.26 383.34,7.26 383.34,5.21 382.1,5.21 382.1,8.76 387.03,8.76 387.03,4.21 395.75,4.21 		"/>
	</g>
	<g>
		<polygon class="st1" points="413.66,9.76 408.35,9.76 408.35,8.76 412.66,8.76 412.66,5.21 405.95,5.21 405.95,9.76 399.02,9.76 
			399.02,4.21 402.26,4.21 402.26,7.26 401.26,7.26 401.26,5.21 400.02,5.21 400.02,8.76 404.95,8.76 404.95,4.21 413.66,4.21 		"/>
	</g>
	<g>
		<polygon class="st1" points="431.58,9.76 426.27,9.76 426.27,8.76 430.58,8.76 430.58,5.21 423.86,5.21 423.86,9.76 416.94,9.76 
			416.94,4.21 420.17,4.21 420.17,7.26 419.17,7.26 419.17,5.21 417.94,5.21 417.94,8.76 422.86,8.76 422.86,4.21 431.58,4.21 		"/>
	</g>
	<g>
		<polygon class="st1" points="449.5,9.76 444.19,9.76 444.19,8.76 448.5,8.76 448.5,5.21 441.78,5.21 441.78,9.76 434.85,9.76 
			434.85,4.21 438.09,4.21 438.09,7.26 437.09,7.26 437.09,5.21 435.85,5.21 435.85,8.76 440.78,8.76 440.78,4.21 449.5,4.21 		"/>
	</g>
	<g>
		<polygon class="st1" points="467.41,9.76 462.1,9.76 462.1,8.76 466.41,8.76 466.41,5.21 459.69,5.21 459.69,9.76 452.77,9.76 
			452.77,4.21 456,4.21 456,7.26 455,7.26 455,5.21 453.77,5.21 453.77,8.76 458.69,8.76 458.69,4.21 467.41,4.21 		"/>
	</g>
	<g>
		<polygon class="st1" points="485.33,9.76 480.02,9.76 480.02,8.76 484.33,8.76 484.33,5.21 477.61,5.21 477.61,9.76 470.68,9.76 
			470.68,4.21 473.92,4.21 473.92,7.26 472.92,7.26 472.92,5.21 471.68,5.21 471.68,8.76 476.61,8.76 476.61,4.21 485.33,4.21 		"/>
	</g>
	<g>
		<polygon class="st1" points="503.24,9.76 497.94,9.76 497.94,8.76 502.24,8.76 502.24,5.21 495.53,5.21 495.53,9.76 488.6,9.76 
			488.6,4.21 491.84,4.21 491.84,7.26 490.84,7.26 490.84,5.21 489.6,5.21 489.6,8.76 494.53,8.76 494.53,4.21 503.24,4.21 		"/>
	</g>
	<g>
		<polygon class="st1" points="521.16,9.76 515.85,9.76 515.85,8.76 520.16,8.76 520.16,5.21 513.44,5.21 513.44,9.76 506.52,9.76 
			506.52,4.21 509.75,4.21 509.75,7.26 508.75,7.26 508.75,5.21 507.52,5.21 507.52,8.76 512.44,8.76 512.44,4.21 521.16,4.21 		"/>
	</g>
	<g>
		<polygon class="st1" points="539.08,9.76 533.77,9.76 533.77,8.76 538.08,8.76 538.08,5.21 531.36,5.21 531.36,9.76 524.43,9.76 
			524.43,4.21 527.67,4.21 527.67,7.26 526.67,7.26 526.67,5.21 525.43,5.21 525.43,8.76 530.36,8.76 530.36,4.21 539.08,4.21 		"/>
	</g>
	<g>
		<polygon class="st1" points="556.99,9.76 551.68,9.76 551.68,8.76 555.99,8.76 555.99,5.21 549.27,5.21 549.27,9.76 542.35,9.76 
			542.35,4.21 545.58,4.21 545.58,7.26 544.58,7.26 544.58,5.21 543.35,5.21 543.35,8.76 548.27,8.76 548.27,4.21 556.99,4.21 		"/>
	</g>
	<g>
		<polygon class="st1" points="574.91,9.76 569.6,9.76 569.6,8.76 573.91,8.76 573.91,5.21 567.19,5.21 567.19,9.76 560.26,9.76 
			560.26,4.21 563.5,4.21 563.5,7.26 562.5,7.26 562.5,5.21 561.26,5.21 561.26,8.76 566.19,8.76 566.19,4.21 574.91,4.21 		"/>
	</g>
	<g>
		<polygon class="st1" points="592.82,9.76 587.52,9.76 587.52,8.76 591.82,8.76 591.82,5.21 585.11,5.21 585.11,9.76 578.18,9.76 
			578.18,4.21 581.42,4.21 581.42,7.26 580.42,7.26 580.42,5.21 579.18,5.21 579.18,8.76 584.11,8.76 584.11,4.21 592.82,4.21 		"/>
	</g>
	<g>
		<polygon class="st1" points="610.74,9.76 605.43,9.76 605.43,8.76 609.74,8.76 609.74,5.21 603.02,5.21 603.02,9.76 596.1,9.76 
			596.1,4.21 599.33,4.21 599.33,7.26 598.33,7.26 598.33,5.21 597.1,5.21 597.1,8.76 602.02,8.76 602.02,4.21 610.74,4.21 		"/>
	</g>
	<g>
		<polygon class="st1" points="628.66,9.76 623.35,9.76 623.35,8.76 627.66,8.76 627.66,5.21 620.94,5.21 620.94,9.76 614.01,9.76 
			614.01,4.21 617.25,4.21 617.25,7.26 616.25,7.26 616.25,5.21 615.01,5.21 615.01,8.76 619.94,8.76 619.94,4.21 628.66,4.21 		"/>
	</g>
	<g>
		<polygon class="st1" points="646.57,9.76 641.26,9.76 641.26,8.76 645.57,8.76 645.57,5.21 638.86,5.21 638.86,9.76 631.93,9.76 
			631.93,4.21 635.17,4.21 635.17,7.26 634.17,7.26 634.17,5.21 632.93,5.21 632.93,8.76 637.86,8.76 637.86,4.21 646.57,4.21 		"/>
	</g>
	<g>
		<polygon class="st1" points="664.49,9.76 659.18,9.76 659.18,8.76 663.49,8.76 663.49,5.21 656.77,5.21 656.77,9.76 649.85,9.76 
			649.85,4.21 653.08,4.21 653.08,7.26 652.08,7.26 652.08,5.21 650.85,5.21 650.85,8.76 655.77,8.76 655.77,4.21 664.49,4.21 		"/>
	</g>
	<g>
		<polygon class="st1" points="682.41,9.76 677.1,9.76 677.1,8.76 681.41,8.76 681.41,5.21 674.69,5.21 674.69,9.76 667.76,9.76 
			667.76,4.21 671,4.21 671,7.26 670,7.26 670,5.21 668.76,5.21 668.76,8.76 673.69,8.76 673.69,4.21 682.41,4.21 		"/>
	</g>
	<g>
		<polygon class="st1" points="700.32,9.76 695.01,9.76 695.01,8.76 699.32,8.76 699.32,5.21 692.61,5.21 692.61,9.76 685.68,9.76 
			685.68,4.21 688.92,4.21 688.92,7.26 687.92,7.26 687.92,5.21 686.68,5.21 686.68,8.76 691.61,8.76 691.61,4.21 700.32,4.21 		"/>
	</g>
</g>
<rect x="701.89" y="3.11" class="st1" width="1" height="30.68"/>
<rect x="703.99" y="1" class="st1" width="1" height="32.79"/>
<rect x="690.05" y="14.94" class="st1" width="1" height="18.85"/>
<rect x="692.16" y="12.83" class="st1" width="1" height="20.96"/>
<g>
	<rect x="701.89" y="33.79" class="st1" width="1" height="17.55"/>
</g>
<g>
	<rect x="703.99" y="33.79" class="st1" width="1" height="17.55"/>
</g>
<g>
	<rect x="690.05" y="33.79" class="st1" width="1" height="17.55"/>
</g>
<g>
	<rect x="692.16" y="33.79" class="st1" width="1" height="17.55"/>
</g>
<g>
	<rect x="701.89" y="51.34" class="st1" width="1" height="17.55"/>
</g>
<g>
	<rect x="703.99" y="51.34" class="st1" width="1" height="17.55"/>
</g>
<g>
	<rect x="690.05" y="51.34" class="st1" width="1" height="17.55"/>
</g>
<g>
	<rect x="692.16" y="51.34" class="st1" width="1" height="17.55"/>
</g>
<g>
	<rect x="701.89" y="68.89" class="st1" width="1" height="17.55"/>
</g>
<g>
	<rect x="703.99" y="68.89" class="st1" width="1" height="17.55"/>
</g>
<g>
	<rect x="690.05" y="68.89" class="st1" width="1" height="17.55"/>
</g>
<g>
	<rect x="692.16" y="68.89" class="st1" width="1" height="17.55"/>
</g>
<g>
	<rect x="701.89" y="86.44" class="st1" width="1" height="17.55"/>
</g>
<g>
	<rect x="703.99" y="86.44" class="st1" width="1" height="17.55"/>
</g>
<g>
	<rect x="690.05" y="86.44" class="st1" width="1" height="17.55"/>
</g>
<g>
	<rect x="692.16" y="86.44" class="st1" width="1" height="17.55"/>
</g>
<g>
	<rect x="701.89" y="103.99" class="st1" width="1" height="17.55"/>
</g>
<g>
	<rect x="703.99" y="103.99" class="st1" width="1" height="17.55"/>
</g>
<g>
	<rect x="690.05" y="103.99" class="st1" width="1" height="17.55"/>
</g>
<g>
	<rect x="692.16" y="103.99" class="st1" width="1" height="17.55"/>
</g>
<g>
	<rect x="701.89" y="121.54" class="st1" width="1" height="17.55"/>
</g>
<g>
	<rect x="703.99" y="121.54" class="st1" width="1" height="17.55"/>
</g>
<g>
	<rect x="690.05" y="121.54" class="st1" width="1" height="17.55"/>
</g>
<g>
	<rect x="692.16" y="121.54" class="st1" width="1" height="17.55"/>
</g>
<g>
	<rect x="701.89" y="139.09" class="st1" width="1" height="17.55"/>
</g>
<g>
	<rect x="703.99" y="139.09" class="st1" width="1" height="17.55"/>
</g>
<g>
	<rect x="690.05" y="139.09" class="st1" width="1" height="17.55"/>
</g>
<g>
	<rect x="692.16" y="139.09" class="st1" width="1" height="17.55"/>
</g>
<g>
	<rect x="701.89" y="156.64" class="st1" width="1" height="17.55"/>
</g>
<g>
	<rect x="703.99" y="156.64" class="st1" width="1" height="17.55"/>
</g>
<g>
	<rect x="690.05" y="156.64" class="st1" width="1" height="17.55"/>
</g>
<g>
	<rect x="692.16" y="156.64" class="st1" width="1" height="17.55"/>
</g>
<g>
	<rect x="701.89" y="174.19" class="st1" width="1" height="17.55"/>
</g>
<g>
	<rect x="703.99" y="174.19" class="st1" width="1" height="17.55"/>
</g>
<g>
	<rect x="690.05" y="174.19" class="st1" width="1" height="17.55"/>
</g>
<g>
	<rect x="692.16" y="174.19" class="st1" width="1" height="17.55"/>
</g>
<g>
	<rect x="701.89" y="191.74" class="st1" width="1" height="17.55"/>
</g>
<g>
	<rect x="703.99" y="191.74" class="st1" width="1" height="17.55"/>
</g>
<g>
	<rect x="690.05" y="191.74" class="st1" width="1" height="17.55"/>
</g>
<g>
	<rect x="692.16" y="191.74" class="st1" width="1" height="17.55"/>
</g>
<g>
	<rect x="701.89" y="209.29" class="st1" width="1" height="17.55"/>
</g>
<g>
	<rect x="703.99" y="209.29" class="st1" width="1" height="17.55"/>
</g>
<g>
	<rect x="690.05" y="209.29" class="st1" width="1" height="17.55"/>
</g>
<g>
	<rect x="692.16" y="209.29" class="st1" width="1" height="17.55"/>
</g>
<g>
	<rect x="701.89" y="226.84" class="st1" width="1" height="17.55"/>
</g>
<g>
	<rect x="703.99" y="226.84" class="st1" width="1" height="17.55"/>
</g>
<g>
	<rect x="690.05" y="226.84" class="st1" width="1" height="17.55"/>
</g>
<g>
	<rect x="692.16" y="226.84" class="st1" width="1" height="17.55"/>
</g>
<g>
	<rect x="701.89" y="244.39" class="st1" width="1" height="17.55"/>
</g>
<g>
	<rect x="703.99" y="244.39" class="st1" width="1" height="17.55"/>
</g>
<g>
	<rect x="690.05" y="244.39" class="st1" width="1" height="17.55"/>
</g>
<g>
	<rect x="692.16" y="244.39" class="st1" width="1" height="17.55"/>
</g>
<g>
	<rect x="701.89" y="261.94" class="st1" width="1" height="17.55"/>
</g>
<g>
	<rect x="703.99" y="261.94" class="st1" width="1" height="17.55"/>
</g>
<g>
	<rect x="690.05" y="261.94" class="st1" width="1" height="17.55"/>
</g>
<g>
	<rect x="692.16" y="261.94" class="st1" width="1" height="17.55"/>
</g>
<g>
	<rect x="701.89" y="279.49" class="st1" width="1" height="17.55"/>
</g>
<g>
	<rect x="703.99" y="279.49" class="st1" width="1" height="17.55"/>
</g>
<g>
	<rect x="690.05" y="279.49" class="st1" width="1" height="17.55"/>
</g>
<g>
	<rect x="692.16" y="279.49" class="st1" width="1" height="17.55"/>
</g>
<g>
	<rect x="701.89" y="297.04" class="st1" width="1" height="17.55"/>
</g>
<g>
	<rect x="703.99" y="297.04" class="st1" width="1" height="17.55"/>
</g>
<g>
	<rect x="690.05" y="297.04" class="st1" width="1" height="17.55"/>
</g>
<g>
	<rect x="692.16" y="297.04" class="st1" width="1" height="17.55"/>
</g>
<g>
	<rect x="701.89" y="314.59" class="st1" width="1" height="17.55"/>
</g>
<g>
	<rect x="703.99" y="314.59" class="st1" width="1" height="17.55"/>
</g>
<g>
	<rect x="690.05" y="314.59" class="st1" width="1" height="17.55"/>
</g>
<g>
	<rect x="692.16" y="314.59" class="st1" width="1" height="17.55"/>
</g>
<g>
	<rect x="701.89" y="332.14" class="st1" width="1" height="17.55"/>
</g>
<g>
	<rect x="703.99" y="332.14" class="st1" width="1" height="17.55"/>
</g>
<g>
	<rect x="690.05" y="332.14" class="st1" width="1" height="17.55"/>
</g>
<g>
	<rect x="692.16" y="332.14" class="st1" width="1" height="17.55"/>
</g>
<g>
	<rect x="701.89" y="349.69" class="st1" width="1" height="17.55"/>
</g>
<g>
	<rect x="703.99" y="349.69" class="st1" width="1" height="17.55"/>
</g>
<g>
	<rect x="690.05" y="349.69" class="st1" width="1" height="17.55"/>
</g>
<g>
	<rect x="692.16" y="349.69" class="st1" width="1" height="17.55"/>
</g>
<g>
	<rect x="701.89" y="367.24" class="st1" width="1" height="17.55"/>
</g>
<g>
	<rect x="703.99" y="367.24" class="st1" width="1" height="17.55"/>
</g>
<g>
	<rect x="690.05" y="367.24" class="st1" width="1" height="17.55"/>
</g>
<g>
	<rect x="692.16" y="367.24" class="st1" width="1" height="17.55"/>
</g>
<g>
	<rect x="701.89" y="384.79" class="st1" width="1" height="17.55"/>
</g>
<g>
	<rect x="703.99" y="384.79" class="st1" width="1" height="17.55"/>
</g>
<g>
	<rect x="690.05" y="384.79" class="st1" width="1" height="17.55"/>
</g>
<g>
	<rect x="692.16" y="384.79" class="st1" width="1" height="17.55"/>
</g>
<g>
	<rect x="701.89" y="402.33" class="st1" width="1" height="17.55"/>
</g>
<g>
	<rect x="703.99" y="402.33" class="st1" width="1" height="17.55"/>
</g>
<g>
	<rect x="690.05" y="402.33" class="st1" width="1" height="17.55"/>
</g>
<g>
	<rect x="692.16" y="402.33" class="st1" width="1" height="17.55"/>
</g>
<g>
	<rect x="701.89" y="419.88" class="st1" width="1" height="17.55"/>
</g>
<g>
	<rect x="703.99" y="419.88" class="st1" width="1" height="17.55"/>
</g>
<g>
	<rect x="690.05" y="419.88" class="st1" width="1" height="17.55"/>
</g>
<g>
	<rect x="692.16" y="419.88" class="st1" width="1" height="17.55"/>
</g>
<g>
	<rect x="701.89" y="437.43" class="st1" width="1" height="17.55"/>
</g>
<g>
	<rect x="703.99" y="437.43" class="st1" width="1" height="17.55"/>
</g>
<g>
	<rect x="690.05" y="437.43" class="st1" width="1" height="17.55"/>
</g>
<g>
	<rect x="692.16" y="437.43" class="st1" width="1" height="17.55"/>
</g>
<g>
	<rect x="701.89" y="454.98" class="st1" width="1" height="17.55"/>
</g>
<g>
	<rect x="703.99" y="454.98" class="st1" width="1" height="17.55"/>
</g>
<g>
	<rect x="690.05" y="454.98" class="st1" width="1" height="17.55"/>
</g>
<g>
	<rect x="692.16" y="454.98" class="st1" width="1" height="17.55"/>
</g>
<g>
	<rect x="701.89" y="472.53" class="st1" width="1" height="30.68"/>
</g>
<g>
	<rect x="703.99" y="472.53" class="st1" width="1" height="32.79"/>
</g>
<g>
	<rect x="690.05" y="472.53" class="st1" width="1" height="18.85"/>
</g>
<g>
	<rect x="692.16" y="472.53" class="st1" width="1" height="20.96"/>
</g>
<g>
	<polygon class="st1" points="695.23,487.14 700.78,487.14 700.78,492.41 699.78,492.41 699.78,488.14 696.23,488.14 696.23,494.79 
		700.78,494.79 700.78,501.67 695.23,501.67 695.23,498.45 698.28,498.45 698.28,499.45 696.23,499.45 696.23,500.67 699.78,500.67 
		699.78,495.79 695.23,495.79 	"/>
	<g>
		<polygon class="st1" points="695.23,469.59 700.78,469.59 700.78,474.86 699.78,474.86 699.78,470.59 696.23,470.59 
			696.23,477.24 700.78,477.24 700.78,484.12 695.23,484.12 695.23,480.9 698.28,480.9 698.28,481.9 696.23,481.9 696.23,483.12 
			699.78,483.12 699.78,478.24 695.23,478.24 		"/>
	</g>
	<g>
		<polygon class="st1" points="695.23,452.04 700.78,452.04 700.78,457.31 699.78,457.31 699.78,453.04 696.23,453.04 
			696.23,459.69 700.78,459.69 700.78,466.57 695.23,466.57 695.23,463.35 698.28,463.35 698.28,464.35 696.23,464.35 
			696.23,465.57 699.78,465.57 699.78,460.69 695.23,460.69 		"/>
	</g>
	<g>
		<polygon class="st1" points="695.23,434.49 700.78,434.49 700.78,439.76 699.78,439.76 699.78,435.49 696.23,435.49 
			696.23,442.14 700.78,442.14 700.78,449.02 695.23,449.02 695.23,445.8 698.28,445.8 698.28,446.8 696.23,446.8 696.23,448.02 
			699.78,448.02 699.78,443.14 695.23,443.14 		"/>
	</g>
	<g>
		<polygon class="st1" points="695.23,416.94 700.78,416.94 700.78,422.21 699.78,422.21 699.78,417.94 696.23,417.94 
			696.23,424.59 700.78,424.59 700.78,431.47 695.23,431.47 695.23,428.25 698.28,428.25 698.28,429.25 696.23,429.25 
			696.23,430.47 699.78,430.47 699.78,425.59 695.23,425.59 		"/>
	</g>
	<g>
		<polygon class="st1" points="695.23,399.39 700.78,399.39 700.78,404.66 699.78,404.66 699.78,400.39 696.23,400.39 
			696.23,407.04 700.78,407.04 700.78,413.92 695.23,413.92 695.23,410.7 698.28,410.7 698.28,411.7 696.23,411.7 696.23,412.92 
			699.78,412.92 699.78,408.04 695.23,408.04 		"/>
	</g>
	<g>
		<polygon class="st1" points="695.23,381.84 700.78,381.84 700.78,387.11 699.78,387.11 699.78,382.84 696.23,382.84 
			696.23,389.49 700.78,389.49 700.78,396.37 695.23,396.37 695.23,393.15 698.28,393.15 698.28,394.15 696.23,394.15 
			696.23,395.37 699.78,395.37 699.78,390.49 695.23,390.49 		"/>
	</g>
	<g>
		<polygon class="st1" points="695.23,364.29 700.78,364.29 700.78,369.56 699.78,369.56 699.78,365.29 696.23,365.29 
			696.23,371.94 700.78,371.94 700.78,378.82 695.23,378.82 695.23,375.6 698.28,375.6 698.28,376.6 696.23,376.6 696.23,377.82 
			699.78,377.82 699.78,372.94 695.23,372.94 		"/>
	</g>
	<g>
		<polygon class="st1" points="695.23,346.74 700.78,346.74 700.78,352.01 699.78,352.01 699.78,347.74 696.23,347.74 
			696.23,354.39 700.78,354.39 700.78,361.27 695.23,361.27 695.23,358.05 698.28,358.05 698.28,359.05 696.23,359.05 
			696.23,360.27 699.78,360.27 699.78,355.39 695.23,355.39 		"/>
	</g>
	<g>
		<polygon class="st1" points="695.23,329.19 700.78,329.19 700.78,334.46 699.78,334.46 699.78,330.19 696.23,330.19 
			696.23,336.84 700.78,336.84 700.78,343.72 695.23,343.72 695.23,340.5 698.28,340.5 698.28,341.5 696.23,341.5 696.23,342.72 
			699.78,342.72 699.78,337.84 695.23,337.84 		"/>
	</g>
	<g>
		<polygon class="st1" points="695.23,311.64 700.78,311.64 700.78,316.91 699.78,316.91 699.78,312.64 696.23,312.64 
			696.23,319.29 700.78,319.29 700.78,326.17 695.23,326.17 695.23,322.95 698.28,322.95 698.28,323.95 696.23,323.95 
			696.23,325.17 699.78,325.17 699.78,320.29 695.23,320.29 		"/>
	</g>
	<g>
		<polygon class="st1" points="695.23,294.09 700.78,294.09 700.78,299.36 699.78,299.36 699.78,295.09 696.23,295.09 
			696.23,301.75 700.78,301.75 700.78,308.62 695.23,308.62 695.23,305.4 698.28,305.4 698.28,306.4 696.23,306.4 696.23,307.62 
			699.78,307.62 699.78,302.75 695.23,302.75 		"/>
	</g>
	<g>
		<polygon class="st1" points="695.23,276.54 700.78,276.54 700.78,281.81 699.78,281.81 699.78,277.54 696.23,277.54 696.23,284.2 
			700.78,284.2 700.78,291.07 695.23,291.07 695.23,287.85 698.28,287.85 698.28,288.85 696.23,288.85 696.23,290.07 699.78,290.07 
			699.78,285.2 695.23,285.2 		"/>
	</g>
	<g>
		<polygon class="st1" points="695.23,258.99 700.78,258.99 700.78,264.26 699.78,264.26 699.78,259.99 696.23,259.99 
			696.23,266.65 700.78,266.65 700.78,273.52 695.23,273.52 695.23,270.31 698.28,270.31 698.28,271.31 696.23,271.31 
			696.23,272.52 699.78,272.52 699.78,267.65 695.23,267.65 		"/>
	</g>
	<g>
		<polygon class="st1" points="695.23,241.44 700.78,241.44 700.78,246.71 699.78,246.71 699.78,242.44 696.23,242.44 696.23,249.1 
			700.78,249.1 700.78,255.97 695.23,255.97 695.23,252.76 698.28,252.76 698.28,253.76 696.23,253.76 696.23,254.97 699.78,254.97 
			699.78,250.1 695.23,250.1 		"/>
	</g>
	<g>
		<polygon class="st1" points="695.23,223.89 700.78,223.89 700.78,229.16 699.78,229.16 699.78,224.89 696.23,224.89 
			696.23,231.55 700.78,231.55 700.78,238.42 695.23,238.42 695.23,235.21 698.28,235.21 698.28,236.21 696.23,236.21 
			696.23,237.42 699.78,237.42 699.78,232.55 695.23,232.55 		"/>
	</g>
	<g>
		<polygon class="st1" points="695.23,206.34 700.78,206.34 700.78,211.61 699.78,211.61 699.78,207.34 696.23,207.34 696.23,214 
			700.78,214 700.78,220.87 695.23,220.87 695.23,217.66 698.28,217.66 698.28,218.66 696.23,218.66 696.23,219.87 699.78,219.87 
			699.78,215 695.23,215 		"/>
	</g>
	<g>
		<polygon class="st1" points="695.23,188.79 700.78,188.79 700.78,194.06 699.78,194.06 699.78,189.79 696.23,189.79 
			696.23,196.45 700.78,196.45 700.78,203.32 695.23,203.32 695.23,200.11 698.28,200.11 698.28,201.11 696.23,201.11 
			696.23,202.32 699.78,202.32 699.78,197.45 695.23,197.45 		"/>
	</g>
	<g>
		<polygon class="st1" points="695.23,171.24 700.78,171.24 700.78,176.51 699.78,176.51 699.78,172.24 696.23,172.24 696.23,178.9 
			700.78,178.9 700.78,185.77 695.23,185.77 695.23,182.56 698.28,182.56 698.28,183.56 696.23,183.56 696.23,184.77 699.78,184.77 
			699.78,179.9 695.23,179.9 		"/>
	</g>
	<g>
		<polygon class="st1" points="695.23,153.69 700.78,153.69 700.78,158.96 699.78,158.96 699.78,154.69 696.23,154.69 
			696.23,161.35 700.78,161.35 700.78,168.23 695.23,168.23 695.23,165.01 698.28,165.01 698.28,166.01 696.23,166.01 
			696.23,167.23 699.78,167.23 699.78,162.35 695.23,162.35 		"/>
	</g>
	<g>
		<polygon class="st1" points="695.23,136.15 700.78,136.15 700.78,141.41 699.78,141.41 699.78,137.15 696.23,137.15 696.23,143.8 
			700.78,143.8 700.78,150.68 695.23,150.68 695.23,147.46 698.28,147.46 698.28,148.46 696.23,148.46 696.23,149.68 699.78,149.68 
			699.78,144.8 695.23,144.8 		"/>
	</g>
	<g>
		<polygon class="st1" points="695.23,118.6 700.78,118.6 700.78,123.86 699.78,123.86 699.78,119.6 696.23,119.6 696.23,126.25 
			700.78,126.25 700.78,133.13 695.23,133.13 695.23,129.91 698.28,129.91 698.28,130.91 696.23,130.91 696.23,132.13 
			699.78,132.13 699.78,127.25 695.23,127.25 		"/>
	</g>
	<g>
		<polygon class="st1" points="695.23,101.05 700.78,101.05 700.78,106.31 699.78,106.31 699.78,102.05 696.23,102.05 696.23,108.7 
			700.78,108.7 700.78,115.58 695.23,115.58 695.23,112.36 698.28,112.36 698.28,113.36 696.23,113.36 696.23,114.58 699.78,114.58 
			699.78,109.7 695.23,109.7 		"/>
	</g>
	<g>
		<polygon class="st1" points="695.23,83.5 700.78,83.5 700.78,88.77 699.78,88.77 699.78,84.5 696.23,84.5 696.23,91.15 
			700.78,91.15 700.78,98.03 695.23,98.03 695.23,94.81 698.28,94.81 698.28,95.81 696.23,95.81 696.23,97.03 699.78,97.03 
			699.78,92.15 695.23,92.15 		"/>
	</g>
	<g>
		<polygon class="st1" points="695.23,65.95 700.78,65.95 700.78,71.22 699.78,71.22 699.78,66.95 696.23,66.95 696.23,73.6 
			700.78,73.6 700.78,80.48 695.23,80.48 695.23,77.26 698.28,77.26 698.28,78.26 696.23,78.26 696.23,79.48 699.78,79.48 
			699.78,74.6 695.23,74.6 		"/>
	</g>
	<g>
		<polygon class="st1" points="695.23,48.4 700.78,48.4 700.78,53.67 699.78,53.67 699.78,49.4 696.23,49.4 696.23,56.05 
			700.78,56.05 700.78,62.93 695.23,62.93 695.23,59.71 698.28,59.71 698.28,60.71 696.23,60.71 696.23,61.93 699.78,61.93 
			699.78,57.05 695.23,57.05 		"/>
	</g>
	<g>
		<polygon class="st1" points="695.23,30.85 700.78,30.85 700.78,36.12 699.78,36.12 699.78,31.85 696.23,31.85 696.23,38.5 
			700.78,38.5 700.78,45.38 695.23,45.38 695.23,42.16 698.28,42.16 698.28,43.16 696.23,43.16 696.23,44.38 699.78,44.38 
			699.78,39.5 695.23,39.5 		"/>
	</g>
	<g>
		<polygon class="st1" points="695.23,11.85 700.78,11.85 700.78,17.12 699.78,17.12 699.78,12.85 696.23,12.85 696.23,19.5 
			700.78,19.5 700.78,26.38 695.23,26.38 695.23,23.16 698.28,23.16 698.28,24.16 696.23,24.16 696.23,25.38 699.78,25.38 
			699.78,20.5 695.23,20.5 		"/>
	</g>
</g>
<rect x="671.05" y="503.22" class="st1" width="17.7" height="1"/>
<rect x="671.05" y="505.32" class="st1" width="17.7" height="1"/>
<rect x="671.05" y="491.38" class="st1" width="17.7" height="1"/>
<rect x="671.05" y="493.49" class="st1" width="17.7" height="1"/>
<g>
	<rect x="653.36" y="503.22" class="st1" width="17.7" height="1"/>
</g>
<g>
	<rect x="653.36" y="505.32" class="st1" width="17.7" height="1"/>
</g>
<g>
	<rect x="653.36" y="491.38" class="st1" width="17.7" height="1"/>
</g>
<g>
	<rect x="653.36" y="493.49" class="st1" width="17.7" height="1"/>
</g>
<g>
	<rect x="635.66" y="503.22" class="st1" width="17.7" height="1"/>
</g>
<g>
	<rect x="635.66" y="505.32" class="st1" width="17.7" height="1"/>
</g>
<g>
	<rect x="635.66" y="491.38" class="st1" width="17.7" height="1"/>
</g>
<g>
	<rect x="635.66" y="493.49" class="st1" width="17.7" height="1"/>
</g>
<g>
	<rect x="617.96" y="503.22" class="st1" width="17.7" height="1"/>
</g>
<g>
	<rect x="617.96" y="505.32" class="st1" width="17.7" height="1"/>
</g>
<g>
	<rect x="617.96" y="491.38" class="st1" width="17.7" height="1"/>
</g>
<g>
	<rect x="617.96" y="493.49" class="st1" width="17.7" height="1"/>
</g>
<g>
	<rect x="600.26" y="503.22" class="st1" width="17.7" height="1"/>
</g>
<g>
	<rect x="600.26" y="505.32" class="st1" width="17.7" height="1"/>
</g>
<g>
	<rect x="600.26" y="491.38" class="st1" width="17.7" height="1"/>
</g>
<g>
	<rect x="600.26" y="493.49" class="st1" width="17.7" height="1"/>
</g>
<g>
	<rect x="582.56" y="503.22" class="st1" width="17.7" height="1"/>
</g>
<g>
	<rect x="582.56" y="505.32" class="st1" width="17.7" height="1"/>
</g>
<g>
	<rect x="582.56" y="491.38" class="st1" width="17.7" height="1"/>
</g>
<g>
	<rect x="582.56" y="493.49" class="st1" width="17.7" height="1"/>
</g>
<g>
	<rect x="564.87" y="503.22" class="st1" width="17.7" height="1"/>
</g>
<g>
	<rect x="564.87" y="505.32" class="st1" width="17.7" height="1"/>
</g>
<g>
	<rect x="564.87" y="491.38" class="st1" width="17.7" height="1"/>
</g>
<g>
	<rect x="564.87" y="493.49" class="st1" width="17.7" height="1"/>
</g>
<g>
	<rect x="547.17" y="503.22" class="st1" width="17.7" height="1"/>
</g>
<g>
	<rect x="547.17" y="505.32" class="st1" width="17.7" height="1"/>
</g>
<g>
	<rect x="547.17" y="491.38" class="st1" width="17.7" height="1"/>
</g>
<g>
	<rect x="547.17" y="493.49" class="st1" width="17.7" height="1"/>
</g>
<g>
	<rect x="529.47" y="503.22" class="st1" width="17.7" height="1"/>
</g>
<g>
	<rect x="529.47" y="505.32" class="st1" width="17.7" height="1"/>
</g>
<g>
	<rect x="529.47" y="491.38" class="st1" width="17.7" height="1"/>
</g>
<g>
	<rect x="529.47" y="493.49" class="st1" width="17.7" height="1"/>
</g>
<g>
	<rect x="511.77" y="503.22" class="st1" width="17.7" height="1"/>
</g>
<g>
	<rect x="511.77" y="505.32" class="st1" width="17.7" height="1"/>
</g>
<g>
	<rect x="511.77" y="491.38" class="st1" width="17.7" height="1"/>
</g>
<g>
	<rect x="511.77" y="493.49" class="st1" width="17.7" height="1"/>
</g>
<g>
	<rect x="494.08" y="503.22" class="st1" width="17.7" height="1"/>
</g>
<g>
	<rect x="494.08" y="505.32" class="st1" width="17.7" height="1"/>
</g>
<g>
	<rect x="494.08" y="491.38" class="st1" width="17.7" height="1"/>
</g>
<g>
	<rect x="494.08" y="493.49" class="st1" width="17.7" height="1"/>
</g>
<g>
	<rect x="476.38" y="503.22" class="st1" width="17.7" height="1"/>
</g>
<g>
	<rect x="476.38" y="505.32" class="st1" width="17.7" height="1"/>
</g>
<g>
	<rect x="476.38" y="491.38" class="st1" width="17.7" height="1"/>
</g>
<g>
	<rect x="476.38" y="493.49" class="st1" width="17.7" height="1"/>
</g>
<g>
	<rect x="458.68" y="503.22" class="st1" width="17.7" height="1"/>
</g>
<g>
	<rect x="458.68" y="505.32" class="st1" width="17.7" height="1"/>
</g>
<g>
	<rect x="458.68" y="491.38" class="st1" width="17.7" height="1"/>
</g>
<g>
	<rect x="458.68" y="493.49" class="st1" width="17.7" height="1"/>
</g>
<g>
	<rect x="440.98" y="503.22" class="st1" width="17.7" height="1"/>
</g>
<g>
	<rect x="440.98" y="505.32" class="st1" width="17.7" height="1"/>
</g>
<g>
	<rect x="440.98" y="491.38" class="st1" width="17.7" height="1"/>
</g>
<g>
	<rect x="440.98" y="493.49" class="st1" width="17.7" height="1"/>
</g>
<g>
	<rect x="423.29" y="503.22" class="st1" width="17.7" height="1"/>
</g>
<g>
	<rect x="423.29" y="505.32" class="st1" width="17.7" height="1"/>
</g>
<g>
	<rect x="423.29" y="491.38" class="st1" width="17.7" height="1"/>
</g>
<g>
	<rect x="423.29" y="493.49" class="st1" width="17.7" height="1"/>
</g>
<g>
	<rect x="405.59" y="503.22" class="st1" width="17.7" height="1"/>
</g>
<g>
	<rect x="405.59" y="505.32" class="st1" width="17.7" height="1"/>
</g>
<g>
	<rect x="405.59" y="491.38" class="st1" width="17.7" height="1"/>
</g>
<g>
	<rect x="405.59" y="493.49" class="st1" width="17.7" height="1"/>
</g>
<g>
	<rect x="387.89" y="503.22" class="st1" width="17.7" height="1"/>
</g>
<g>
	<rect x="387.89" y="505.32" class="st1" width="17.7" height="1"/>
</g>
<g>
	<rect x="387.89" y="491.38" class="st1" width="17.7" height="1"/>
</g>
<g>
	<rect x="387.89" y="493.49" class="st1" width="17.7" height="1"/>
</g>
<g>
	<rect x="370.19" y="503.22" class="st1" width="17.7" height="1"/>
</g>
<g>
	<rect x="370.19" y="505.32" class="st1" width="17.7" height="1"/>
</g>
<g>
	<rect x="370.19" y="491.38" class="st1" width="17.7" height="1"/>
</g>
<g>
	<rect x="370.19" y="493.49" class="st1" width="17.7" height="1"/>
</g>
<g>
	<rect x="352.5" y="503.22" class="st1" width="17.7" height="1"/>
</g>
<g>
	<rect x="352.5" y="505.32" class="st1" width="17.7" height="1"/>
</g>
<g>
	<rect x="352.5" y="491.38" class="st1" width="17.7" height="1"/>
</g>
<g>
	<rect x="352.5" y="493.49" class="st1" width="17.7" height="1"/>
</g>
<g>
	<rect x="334.8" y="503.22" class="st1" width="17.7" height="1"/>
</g>
<g>
	<rect x="334.8" y="505.32" class="st1" width="17.7" height="1"/>
</g>
<g>
	<rect x="334.8" y="491.38" class="st1" width="17.7" height="1"/>
</g>
<g>
	<rect x="334.8" y="493.49" class="st1" width="17.7" height="1"/>
</g>
<g>
	<rect x="317.1" y="503.22" class="st1" width="17.7" height="1"/>
</g>
<g>
	<rect x="317.1" y="505.32" class="st1" width="17.7" height="1"/>
</g>
<g>
	<rect x="317.1" y="491.38" class="st1" width="17.7" height="1"/>
</g>
<g>
	<rect x="317.1" y="493.49" class="st1" width="17.7" height="1"/>
</g>
<g>
	<rect x="299.4" y="503.22" class="st1" width="17.7" height="1"/>
</g>
<g>
	<rect x="299.4" y="505.32" class="st1" width="17.7" height="1"/>
</g>
<g>
	<rect x="299.4" y="491.38" class="st1" width="17.7" height="1"/>
</g>
<g>
	<rect x="299.4" y="493.49" class="st1" width="17.7" height="1"/>
</g>
<g>
	<rect x="281.71" y="503.22" class="st1" width="17.7" height="1"/>
</g>
<g>
	<rect x="281.71" y="505.32" class="st1" width="17.7" height="1"/>
</g>
<g>
	<rect x="281.71" y="491.38" class="st1" width="17.7" height="1"/>
</g>
<g>
	<rect x="281.71" y="493.49" class="st1" width="17.7" height="1"/>
</g>
<g>
	<rect x="264.01" y="503.22" class="st1" width="17.7" height="1"/>
</g>
<g>
	<rect x="264.01" y="505.32" class="st1" width="17.7" height="1"/>
</g>
<g>
	<rect x="264.01" y="491.38" class="st1" width="17.7" height="1"/>
</g>
<g>
	<rect x="264.01" y="493.49" class="st1" width="17.7" height="1"/>
</g>
<g>
	<rect x="246.31" y="503.22" class="st1" width="17.7" height="1"/>
</g>
<g>
	<rect x="246.31" y="505.32" class="st1" width="17.7" height="1"/>
</g>
<g>
	<rect x="246.31" y="491.38" class="st1" width="17.7" height="1"/>
</g>
<g>
	<rect x="246.31" y="493.49" class="st1" width="17.7" height="1"/>
</g>
<g>
	<rect x="228.61" y="503.22" class="st1" width="17.7" height="1"/>
</g>
<g>
	<rect x="228.61" y="505.32" class="st1" width="17.7" height="1"/>
</g>
<g>
	<rect x="228.61" y="491.38" class="st1" width="17.7" height="1"/>
</g>
<g>
	<rect x="228.61" y="493.49" class="st1" width="17.7" height="1"/>
</g>
<g>
	<rect x="210.91" y="503.22" class="st1" width="17.7" height="1"/>
</g>
<g>
	<rect x="210.91" y="505.32" class="st1" width="17.7" height="1"/>
</g>
<g>
	<rect x="210.91" y="491.38" class="st1" width="17.7" height="1"/>
</g>
<g>
	<rect x="210.91" y="493.49" class="st1" width="17.7" height="1"/>
</g>
<g>
	<rect x="193.22" y="503.22" class="st1" width="17.7" height="1"/>
</g>
<g>
	<rect x="193.22" y="505.32" class="st1" width="17.7" height="1"/>
</g>
<g>
	<rect x="193.22" y="491.38" class="st1" width="17.7" height="1"/>
</g>
<g>
	<rect x="193.22" y="493.49" class="st1" width="17.7" height="1"/>
</g>
<g>
	<rect x="175.52" y="503.22" class="st1" width="17.7" height="1"/>
</g>
<g>
	<rect x="175.52" y="505.32" class="st1" width="17.7" height="1"/>
</g>
<g>
	<rect x="175.52" y="491.38" class="st1" width="17.7" height="1"/>
</g>
<g>
	<rect x="175.52" y="493.49" class="st1" width="17.7" height="1"/>
</g>
<g>
	<rect x="157.82" y="503.22" class="st1" width="17.7" height="1"/>
</g>
<g>
	<rect x="157.82" y="505.32" class="st1" width="17.7" height="1"/>
</g>
<g>
	<rect x="157.82" y="491.38" class="st1" width="17.7" height="1"/>
</g>
<g>
	<rect x="157.82" y="493.49" class="st1" width="17.7" height="1"/>
</g>
<g>
	<rect x="140.12" y="503.22" class="st1" width="17.7" height="1"/>
</g>
<g>
	<rect x="140.12" y="505.32" class="st1" width="17.7" height="1"/>
</g>
<g>
	<rect x="140.12" y="491.38" class="st1" width="17.7" height="1"/>
</g>
<g>
	<rect x="140.12" y="493.49" class="st1" width="17.7" height="1"/>
</g>
<g>
	<rect x="122.43" y="503.22" class="st1" width="17.7" height="1"/>
</g>
<g>
	<rect x="122.43" y="505.32" class="st1" width="17.7" height="1"/>
</g>
<g>
	<rect x="122.43" y="491.38" class="st1" width="17.7" height="1"/>
</g>
<g>
	<rect x="122.43" y="493.49" class="st1" width="17.7" height="1"/>
</g>
<g>
	<rect x="104.73" y="503.22" class="st1" width="17.7" height="1"/>
</g>
<g>
	<rect x="104.73" y="505.32" class="st1" width="17.7" height="1"/>
</g>
<g>
	<rect x="104.73" y="491.38" class="st1" width="17.7" height="1"/>
</g>
<g>
	<rect x="104.73" y="493.49" class="st1" width="17.7" height="1"/>
</g>
<g>
	<rect x="87.03" y="503.22" class="st1" width="17.7" height="1"/>
</g>
<g>
	<rect x="87.03" y="505.32" class="st1" width="17.7" height="1"/>
</g>
<g>
	<rect x="87.03" y="491.38" class="st1" width="17.7" height="1"/>
</g>
<g>
	<rect x="87.03" y="493.49" class="st1" width="17.7" height="1"/>
</g>
<g>
	<rect x="69.33" y="503.22" class="st1" width="17.7" height="1"/>
</g>
<g>
	<rect x="69.33" y="505.32" class="st1" width="17.7" height="1"/>
</g>
<g>
	<rect x="69.33" y="491.38" class="st1" width="17.7" height="1"/>
</g>
<g>
	<rect x="69.33" y="493.49" class="st1" width="17.7" height="1"/>
</g>
<g>
	<rect x="51.64" y="503.22" class="st1" width="17.7" height="1"/>
</g>
<g>
	<rect x="51.64" y="505.32" class="st1" width="17.7" height="1"/>
</g>
<g>
	<rect x="51.64" y="491.38" class="st1" width="17.7" height="1"/>
</g>
<g>
	<rect x="51.64" y="493.49" class="st1" width="17.7" height="1"/>
</g>
<g>
	<rect x="33.94" y="503.22" class="st1" width="17.7" height="1"/>
</g>
<g>
	<rect x="33.94" y="505.32" class="st1" width="17.7" height="1"/>
</g>
<g>
	<rect x="33.94" y="491.38" class="st1" width="17.7" height="1"/>
</g>
<g>
	<rect x="33.94" y="493.49" class="st1" width="17.7" height="1"/>
</g>
<rect x="3.11" y="503.22" class="st1" width="30.83" height="1"/>
<rect x="1" y="505.32" class="st1" width="32.94" height="1"/>
<rect x="14.94" y="491.38" class="st1" width="19" height="1"/>
<rect x="12.83" y="493.49" class="st1" width="21.1" height="1"/>
<g>
	<polygon class="st1" points="13.67,496.57 16.91,496.57 16.91,499.62 15.91,499.62 15.91,497.57 14.67,497.57 14.67,501.11 
		20.6,501.11 20.6,496.57 30.31,496.57 30.31,502.11 25,502.11 25,501.11 29.31,501.11 29.31,497.57 21.6,497.57 21.6,502.11 
		13.67,502.11 	"/>
	<g>
		<polygon class="st1" points="33.48,496.57 36.71,496.57 36.71,499.62 35.71,499.62 35.71,497.57 34.48,497.57 34.48,501.11 
			39.4,501.11 39.4,496.57 48.12,496.57 48.12,502.11 42.81,502.11 42.81,501.11 47.12,501.11 47.12,497.57 40.4,497.57 
			40.4,502.11 33.48,502.11 		"/>
	</g>
	<g>
		<polygon class="st1" points="51.28,496.57 54.52,496.57 54.52,499.62 53.52,499.62 53.52,497.57 52.28,497.57 52.28,501.11 
			57.21,501.11 57.21,496.57 65.93,496.57 65.93,502.11 60.62,502.11 60.62,501.11 64.93,501.11 64.93,497.57 58.21,497.57 
			58.21,502.11 51.28,502.11 		"/>
	</g>
	<g>
		<polygon class="st1" points="69.09,496.57 72.32,496.57 72.32,499.62 71.32,499.62 71.32,497.57 70.09,497.57 70.09,501.11 
			75.02,501.11 75.02,496.57 83.73,496.57 83.73,502.11 78.42,502.11 78.42,501.11 82.73,501.11 82.73,497.57 76.02,497.57 
			76.02,502.11 69.09,502.11 		"/>
	</g>
	<g>
		<polygon class="st1" points="86.89,496.57 90.13,496.57 90.13,499.62 89.13,499.62 89.13,497.57 87.89,497.57 87.89,501.11 
			92.82,501.11 92.82,496.57 101.54,496.57 101.54,502.11 96.23,502.11 96.23,501.11 100.54,501.11 100.54,497.57 93.82,497.57 
			93.82,502.11 86.89,502.11 		"/>
	</g>
	<g>
		<polygon class="st1" points="104.7,496.57 107.93,496.57 107.93,499.62 106.93,499.62 106.93,497.57 105.7,497.57 105.7,501.11 
			110.63,501.11 110.63,496.57 119.34,496.57 119.34,502.11 114.03,502.11 114.03,501.11 118.34,501.11 118.34,497.57 
			111.63,497.57 111.63,502.11 104.7,502.11 		"/>
	</g>
	<g>
		<polygon class="st1" points="122.5,496.57 125.74,496.57 125.74,499.62 124.74,499.62 124.74,497.57 123.5,497.57 123.5,501.11 
			128.43,501.11 128.43,496.57 137.15,496.57 137.15,502.11 131.84,502.11 131.84,501.11 136.15,501.11 136.15,497.57 
			129.43,497.57 129.43,502.11 122.5,502.11 		"/>
	</g>
	<g>
		<polygon class="st1" points="140.31,496.57 143.55,496.57 143.55,499.62 142.55,499.62 142.55,497.57 141.31,497.57 
			141.31,501.11 146.24,501.11 146.24,496.57 154.95,496.57 154.95,502.11 149.65,502.11 149.65,501.11 153.95,501.11 
			153.95,497.57 147.24,497.57 147.24,502.11 140.31,502.11 		"/>
	</g>
	<g>
		<polygon class="st1" points="158.12,496.57 161.35,496.57 161.35,499.62 160.35,499.62 160.35,497.57 159.12,497.57 
			159.12,501.11 164.04,501.11 164.04,496.57 172.76,496.57 172.76,502.11 167.45,502.11 167.45,501.11 171.76,501.11 
			171.76,497.57 165.04,497.57 165.04,502.11 158.12,502.11 		"/>
	</g>
	<g>
		<polygon class="st1" points="175.92,496.57 179.16,496.57 179.16,499.62 178.16,499.62 178.16,497.57 176.92,497.57 
			176.92,501.11 181.85,501.11 181.85,496.57 190.57,496.57 190.57,502.11 185.26,502.11 185.26,501.11 189.57,501.11 
			189.57,497.57 182.85,497.57 182.85,502.11 175.92,502.11 		"/>
	</g>
	<g>
		<polygon class="st1" points="193.73,496.57 196.96,496.57 196.96,499.62 195.96,499.62 195.96,497.57 194.73,497.57 
			194.73,501.11 199.65,501.11 199.65,496.57 208.37,496.57 208.37,502.11 203.06,502.11 203.06,501.11 207.37,501.11 
			207.37,497.57 200.65,497.57 200.65,502.11 193.73,502.11 		"/>
	</g>
	<g>
		<polygon class="st1" points="211.53,496.57 214.77,496.57 214.77,499.62 213.77,499.62 213.77,497.57 212.53,497.57 
			212.53,501.11 217.46,501.11 217.46,496.57 226.18,496.57 226.18,502.11 220.87,502.11 220.87,501.11 225.18,501.11 
			225.18,497.57 218.46,497.57 218.46,502.11 211.53,502.11 		"/>
	</g>
	<g>
		<polygon class="st1" points="229.34,496.57 232.58,496.57 232.58,499.62 231.58,499.62 231.58,497.57 230.34,497.57 
			230.34,501.11 235.27,501.11 235.27,496.57 243.98,496.57 243.98,502.11 238.67,502.11 238.67,501.11 242.98,501.11 
			242.98,497.57 236.27,497.57 236.27,502.11 229.34,502.11 		"/>
	</g>
	<g>
		<polygon class="st1" points="247.14,496.57 250.38,496.57 250.38,499.62 249.38,499.62 249.38,497.57 248.14,497.57 
			248.14,501.11 253.07,501.11 253.07,496.57 261.79,496.57 261.79,502.11 256.48,502.11 256.48,501.11 260.79,501.11 
			260.79,497.57 254.07,497.57 254.07,502.11 247.14,502.11 		"/>
	</g>
	<g>
		<polygon class="st1" points="264.95,496.57 268.19,496.57 268.19,499.62 267.19,499.62 267.19,497.57 265.95,497.57 
			265.95,501.11 270.88,501.11 270.88,496.57 279.59,496.57 279.59,502.11 274.28,502.11 274.28,501.11 278.59,501.11 
			278.59,497.57 271.88,497.57 271.88,502.11 264.95,502.11 		"/>
	</g>
	<g>
		<polygon class="st1" points="282.76,496.57 285.99,496.57 285.99,499.62 284.99,499.62 284.99,497.57 283.76,497.57 
			283.76,501.11 288.68,501.11 288.68,496.57 297.4,496.57 297.4,502.11 292.09,502.11 292.09,501.11 296.4,501.11 296.4,497.57 
			289.68,497.57 289.68,502.11 282.76,502.11 		"/>
	</g>
	<g>
		<polygon class="st1" points="300.56,496.57 303.8,496.57 303.8,499.62 302.8,499.62 302.8,497.57 301.56,497.57 301.56,501.11 
			306.49,501.11 306.49,496.57 315.21,496.57 315.21,502.11 309.9,502.11 309.9,501.11 314.21,501.11 314.21,497.57 307.49,497.57 
			307.49,502.11 300.56,502.11 		"/>
	</g>
	<g>
		<polygon class="st1" points="318.37,496.57 321.6,496.57 321.6,499.62 320.6,499.62 320.6,497.57 319.37,497.57 319.37,501.11 
			324.29,501.11 324.29,496.57 333.01,496.57 333.01,502.11 327.7,502.11 327.7,501.11 332.01,501.11 332.01,497.57 325.29,497.57 
			325.29,502.11 318.37,502.11 		"/>
	</g>
	<g>
		<polygon class="st1" points="336.17,496.57 339.41,496.57 339.41,499.62 338.41,499.62 338.41,497.57 337.17,497.57 
			337.17,501.11 342.1,501.11 342.1,496.57 350.82,496.57 350.82,502.11 345.51,502.11 345.51,501.11 349.82,501.11 349.82,497.57 
			343.1,497.57 343.1,502.11 336.17,502.11 		"/>
	</g>
	<g>
		<polygon class="st1" points="353.98,496.57 357.22,496.57 357.22,499.62 356.22,499.62 356.22,497.57 354.98,497.57 
			354.98,501.11 359.91,501.11 359.91,496.57 368.62,496.57 368.62,502.11 363.31,502.11 363.31,501.11 367.62,501.11 
			367.62,497.57 360.91,497.57 360.91,502.11 353.98,502.11 		"/>
	</g>
	<g>
		<polygon class="st1" points="371.78,496.57 375.02,496.57 375.02,499.62 374.02,499.62 374.02,497.57 372.78,497.57 
			372.78,501.11 377.71,501.11 377.71,496.57 386.43,496.57 386.43,502.11 381.12,502.11 381.12,501.11 385.43,501.11 
			385.43,497.57 378.71,497.57 378.71,502.11 371.78,502.11 		"/>
	</g>
	<g>
		<polygon class="st1" points="389.59,496.57 392.83,496.57 392.83,499.62 391.83,499.62 391.83,497.57 390.59,497.57 
			390.59,501.11 395.52,501.11 395.52,496.57 404.23,496.57 404.23,502.11 398.92,502.11 398.92,501.11 403.23,501.11 
			403.23,497.57 396.52,497.57 396.52,502.11 389.59,502.11 		"/>
	</g>
	<g>
		<polygon class="st1" points="407.4,496.57 410.63,496.57 410.63,499.62 409.63,499.62 409.63,497.57 408.4,497.57 408.4,501.11 
			413.32,501.11 413.32,496.57 422.04,496.57 422.04,502.11 416.73,502.11 416.73,501.11 421.04,501.11 421.04,497.57 
			414.32,497.57 414.32,502.11 407.4,502.11 		"/>
	</g>
	<g>
		<polygon class="st1" points="425.2,496.57 428.44,496.57 428.44,499.62 427.44,499.62 427.44,497.57 426.2,497.57 426.2,501.11 
			431.13,501.11 431.13,496.57 439.85,496.57 439.85,502.11 434.54,502.11 434.54,501.11 438.85,501.11 438.85,497.57 
			432.13,497.57 432.13,502.11 425.2,502.11 		"/>
	</g>
	<g>
		<polygon class="st1" points="443.01,496.57 446.24,496.57 446.24,499.62 445.24,499.62 445.24,497.57 444.01,497.57 
			444.01,501.11 448.94,501.11 448.94,496.57 457.65,496.57 457.65,502.11 452.34,502.11 452.34,501.11 456.65,501.11 
			456.65,497.57 449.94,497.57 449.94,502.11 443.01,502.11 		"/>
	</g>
	<g>
		<polygon class="st1" points="460.81,496.57 464.05,496.57 464.05,499.62 463.05,499.62 463.05,497.57 461.81,497.57 
			461.81,501.11 466.74,501.11 466.74,496.57 475.46,496.57 475.46,502.11 470.15,502.11 470.15,501.11 474.46,501.11 
			474.46,497.57 467.74,497.57 467.74,502.11 460.81,502.11 		"/>
	</g>
	<g>
		<polygon class="st1" points="478.62,496.57 481.86,496.57 481.86,499.62 480.86,499.62 480.86,497.57 479.62,497.57 
			479.62,501.11 484.55,501.11 484.55,496.57 493.26,496.57 493.26,502.11 487.95,502.11 487.95,501.11 492.26,501.11 
			492.26,497.57 485.55,497.57 485.55,502.11 478.62,502.11 		"/>
	</g>
	<g>
		<polygon class="st1" points="496.42,496.57 499.66,496.57 499.66,499.62 498.66,499.62 498.66,497.57 497.42,497.57 
			497.42,501.11 502.35,501.11 502.35,496.57 511.07,496.57 511.07,502.11 505.76,502.11 505.76,501.11 510.07,501.11 
			510.07,497.57 503.35,497.57 503.35,502.11 496.42,502.11 		"/>
	</g>
	<g>
		<polygon class="st1" points="514.23,496.57 517.47,496.57 517.47,499.62 516.47,499.62 516.47,497.57 515.23,497.57 
			515.23,501.11 520.16,501.11 520.16,496.57 528.87,496.57 528.87,502.11 523.57,502.11 523.57,501.11 527.87,501.11 
			527.87,497.57 521.16,497.57 521.16,502.11 514.23,502.11 		"/>
	</g>
	<g>
		<polygon class="st1" points="532.04,496.57 535.27,496.57 535.27,499.62 534.27,499.62 534.27,497.57 533.04,497.57 
			533.04,501.11 537.96,501.11 537.96,496.57 546.68,496.57 546.68,502.11 541.37,502.11 541.37,501.11 545.68,501.11 
			545.68,497.57 538.96,497.57 538.96,502.11 532.04,502.11 		"/>
	</g>
	<g>
		<polygon class="st1" points="549.84,496.57 553.08,496.57 553.08,499.62 552.08,499.62 552.08,497.57 550.84,497.57 
			550.84,501.11 555.77,501.11 555.77,496.57 564.49,496.57 564.49,502.11 559.18,502.11 559.18,501.11 563.49,501.11 
			563.49,497.57 556.77,497.57 556.77,502.11 549.84,502.11 		"/>
	</g>
	<g>
		<polygon class="st1" points="567.65,496.57 570.88,496.57 570.88,499.62 569.88,499.62 569.88,497.57 568.65,497.57 
			568.65,501.11 573.57,501.11 573.57,496.57 582.29,496.57 582.29,502.11 576.98,502.11 576.98,501.11 581.29,501.11 
			581.29,497.57 574.57,497.57 574.57,502.11 567.65,502.11 		"/>
	</g>
	<g>
		<polygon class="st1" points="585.45,496.57 588.69,496.57 588.69,499.62 587.69,499.62 587.69,497.57 586.45,497.57 
			586.45,501.11 591.38,501.11 591.38,496.57 600.1,496.57 600.1,502.11 594.79,502.11 594.79,501.11 599.1,501.11 599.1,497.57 
			592.38,497.57 592.38,502.11 585.45,502.11 		"/>
	</g>
	<g>
		<polygon class="st1" points="603.26,496.57 606.5,496.57 606.5,499.62 605.5,499.62 605.5,497.57 604.26,497.57 604.26,501.11 
			609.19,501.11 609.19,496.57 617.9,496.57 617.9,502.11 612.59,502.11 612.59,501.11 616.9,501.11 616.9,497.57 610.19,497.57 
			610.19,502.11 603.26,502.11 		"/>
	</g>
	<g>
		<polygon class="st1" points="621.07,496.57 624.3,496.57 624.3,499.62 623.3,499.62 623.3,497.57 622.07,497.57 622.07,501.11 
			626.99,501.11 626.99,496.57 635.71,496.57 635.71,502.11 630.4,502.11 630.4,501.11 634.71,501.11 634.71,497.57 627.99,497.57 
			627.99,502.11 621.07,502.11 		"/>
	</g>
	<g>
		<polygon class="st1" points="638.87,496.57 642.11,496.57 642.11,499.62 641.11,499.62 641.11,497.57 639.87,497.57 
			639.87,501.11 644.8,501.11 644.8,496.57 653.51,496.57 653.51,502.11 648.21,502.11 648.21,501.11 652.51,501.11 652.51,497.57 
			645.8,497.57 645.8,502.11 638.87,502.11 		"/>
	</g>
	<g>
		<polygon class="st1" points="656.68,496.57 659.91,496.57 659.91,499.62 658.91,499.62 658.91,497.57 657.68,497.57 
			657.68,501.11 662.6,501.11 662.6,496.57 671.32,496.57 671.32,502.11 666.01,502.11 666.01,501.11 670.32,501.11 670.32,497.57 
			663.6,497.57 663.6,502.11 656.68,502.11 		"/>
	</g>
	<polygon class="st1" points="674.48,496.57 677.72,496.57 677.72,499.62 676.72,499.62 676.72,497.57 675.48,497.57 675.48,501.11 
		682.41,501.11 682.41,496.57 691.13,496.57 691.13,502.11 685.82,502.11 685.82,501.11 690.13,501.11 690.13,497.57 683.41,497.57 
		683.41,502.11 674.48,502.11 	"/>
</g>
<rect x="2.12" y="2.11" class="st1" width="14.12" height="1"/>
<rect class="st1" width="16.24" height="1"/>
<rect x="13.94" y="13.94" class="st1" width="2.3" height="1"/>
<rect x="11.83" y="11.83" class="st1" width="4.41" height="1"/>
<rect x="688.75" y="2.11" class="st1" width="14.13" height="1"/>
<rect x="688.75" class="st1" width="16.24" height="1"/>
<rect x="688.75" y="13.94" class="st1" width="2.3" height="1"/>
<rect x="688.75" y="11.83" class="st1" width="4.41" height="1"/>
<rect x="688.75" y="503.22" class="st1" width="14.13" height="1"/>
<rect x="688.75" y="505.32" class="st1" width="16.24" height="1"/>
<rect x="688.75" y="491.38" class="st1" width="2.3" height="1"/>
<rect x="688.75" y="493.49" class="st1" width="4.41" height="1"/>
<rect x="2.11" y="490.08" class="st1" width="1" height="14.13"/>
<rect y="490.08" class="st1" width="1" height="16.24"/>
<rect x="13.94" y="490.08" class="st1" width="1" height="2.3"/>
<rect x="11.83" y="490.08" class="st1" width="1" height="4.41"/>
<polygon class="st1" points="9.76,502.02 4.21,502.02 4.21,498.8 7.26,498.8 7.26,499.8 5.21,499.8 5.21,501.02 8.76,501.02 
	8.76,495.14 4.21,495.14 4.21,486.5 9.76,486.5 9.76,491.76 8.76,491.76 8.76,487.5 5.21,487.5 5.21,494.14 9.76,494.14 "/>
</svg>
